<svg viewBox="0 0 383 30" fill="none" xmlns="http://www.w3.org/2000/svg">
<path d="M229.744 15.4116C233.821 15.0124 236.625 12.7988 236.625 9.16983C236.625 5.35944 234.04 2.0208 227.304 2.0208H216.892V29.6008H227.304C233.821 29.6008 237.571 26.9154 237.571 21.9437C237.571 17.7704 234.877 15.5931 229.744 15.4116ZM232.802 9.53273C232.802 12.4722 230.763 13.7423 227.304 13.7423H220.569V5.28686H227.304C230.763 5.28686 232.802 6.62957 232.802 9.53273ZM220.569 26.3348V17.0084H227.414C231.673 17.0084 233.749 18.6414 233.749 21.6897C233.749 24.7017 231.673 26.3348 227.414 26.3348H220.569Z" fill="var(--icon-var, #F8F2F2)"/>
<path d="M244.304 17.0084H258.394V13.7423H244.304V5.28686H258.648V2.0208H240.627V29.6008H258.976V26.3348H244.304V17.0084Z" fill="var(--icon-fill, #F8F2F2)"/>
<path d="M282.432 29.4557L269.944 2.0208H262.335V29.6008H266.012V2.16596L278.5 29.6008H286.109V2.0208H282.432V29.4557Z" fill="var(--icon-fill, #F8F2F2)"/>
<path d="M294.511 17.0084H308.601V13.7423H294.511V5.28686H308.856V2.0208H290.834V29.6008H309.183V26.3348H294.511V17.0084Z" fill="var(--icon-fill, #F8F2F2)"/>
<path d="M330.2 2.0208H312.542V29.6008H316.219V17.4438H329.981V14.1778H316.219V5.28686H330.2V2.0208Z" fill="var(--icon-fill, #F8F2F2)"/>
<path d="M336.754 29.6008V2.0208H333.077V29.6008H336.754Z" fill="var(--icon-fill, #F8F2F2)"/>
<path d="M338.684 2.0208V5.28686H347.895V29.6008H351.572V5.28686H360.784V2.0208H338.684Z" fill="var(--icon-fill, #F8F2F2)"/>
<path d="M371.047 30C377.819 30 382.297 26.5525 382.297 21.6171C382.297 17.2987 379.785 15.339 374.215 14.1052L370.756 13.3431C366.496 12.3996 364.712 11.5286 364.712 8.91581C364.712 6.37554 367.479 4.70623 370.974 4.70623C374.324 4.70623 376.872 6.04894 377.746 9.20612H381.569C380.768 4.66994 376.8 1.62162 370.974 1.62162C365.404 1.62162 360.999 4.88767 360.999 9.2787C360.999 13.4157 364.13 15.5931 368.462 16.5366L371.921 17.2987C376.363 18.2785 378.584 19.0043 378.584 22.0163C378.584 24.8832 375.926 26.9154 371.047 26.9154C367.334 26.9154 364.457 25.0283 363.948 21.2905H360.125C360.962 26.6977 365.186 30 371.047 30Z" fill="var(--icon-fill, #F8F2F2)"/>
<path d="M178.47 15.9069C178.47 13.2256 177.523 10.2181 174.792 10.2181C173.044 10.2181 172.316 11.1964 172.316 12.1385C172.316 12.9719 172.898 13.7691 173.918 13.7691C174.646 13.7691 175.375 13.2618 175.375 12.2472C175.375 11.9574 175.338 11.7037 175.302 11.595C176.503 11.8487 177.341 13.9865 177.341 16.8128C177.341 21.7769 174.755 26.125 171.151 26.125C169.112 26.125 168.056 25.0017 168.056 22.3566C168.056 20.5087 168.274 19.2767 169.257 13.6604C169.694 11.1964 170.131 10.7616 170.787 10.5804V10.3993C170.313 10.4717 169.694 10.4717 169.148 10.4717C167.983 10.4717 167.437 10.4717 166.454 10.3993V10.5804C167 10.6529 167.182 10.8341 167.182 11.3414C167.182 12.1023 166.672 14.6749 166.454 15.8707C165.252 22.6827 163.905 26.3424 160.81 26.3424C159.062 26.3424 158.115 24.4945 158.115 21.9581C158.115 18.4071 159.79 13.9865 164.087 10.4717L163.941 10.3268C162.958 10.6892 162.048 10.6892 161.137 10.6892C159.79 10.6892 159.28 10.508 158.479 10.508C156.877 10.508 156.295 11.7762 155.676 13.914L155.821 13.9865C156.258 12.827 156.986 12.6458 157.933 12.6458C158.443 12.6458 159.135 12.7545 159.936 12.7545C160.336 12.7545 160.81 12.7183 161.247 12.6458C157.387 16.0518 155.676 20.2188 155.676 23.19C155.676 26.3062 157.423 27.973 159.535 27.973C161.866 27.973 164.378 26.3787 166.162 20.0376C166.053 20.7986 165.762 22.574 165.762 23.5161C165.762 26.5236 167.255 27.973 169.876 27.973C174.282 27.973 178.47 21.016 178.47 15.9069Z" fill="var(--icon-fill, #F8F2F2)"/>
<path d="M180.589 20.5812C179.86 24.0234 179.387 25.9076 179.387 26.8859C179.387 27.6469 179.751 27.973 180.188 27.973C181.608 27.973 184.157 24.9293 185.395 22.6465L185.176 22.4653C183.902 24.6756 183.101 25.2916 182.7 25.2916C182.482 25.2916 182.336 25.1467 182.336 24.5669C182.336 22.9002 184.594 12.9357 185.213 10.3268L185.067 10.2181C184.193 11.2327 182.81 12.5009 179.97 14.2764L180.152 14.4938C180.989 13.9865 181.28 13.8053 181.535 13.8053C181.754 13.8053 181.827 13.9865 181.827 14.3126C181.827 14.6025 181.754 14.9648 181.681 15.3634L180.589 20.5812ZM186.16 5.97868C186.16 5.32646 185.723 5.03658 185.213 5.03658C183.938 5.03658 183.247 6.55843 183.247 7.6817C183.247 8.33392 183.647 8.62379 184.157 8.62379C185.358 8.62379 186.16 6.99324 186.16 5.97868Z" fill="var(--icon-fill, #F8F2F2)"/>
<path d="M195.43 10.3993C193.974 10.4717 193.246 10.4717 192.481 10.4717L194.156 3.00746L194.047 2.93499C193.61 3.51474 192.991 3.84085 192.263 3.84085C192.044 3.84085 191.716 3.80461 191.498 3.69591C191.243 5.54387 190.806 7.93534 190.296 10.4717C189.459 10.4717 188.658 10.4717 187.966 10.3993C187.857 10.8341 187.675 11.3051 187.42 11.6675L187.493 11.74C188.548 11.6675 189.313 11.6312 190.041 11.6312C188.621 18.1897 186.837 25.3641 186.837 26.8859C186.837 27.6469 187.201 27.973 187.638 27.973C188.84 27.973 191.025 25.7264 192.882 22.6465L192.663 22.4653C191.097 24.9655 190.515 25.3279 190.151 25.3279C189.932 25.3279 189.787 25.1467 189.787 24.5669C189.787 23.5524 191.025 17.3925 192.226 11.6312L194.957 11.74C195.066 11.3414 195.212 10.8703 195.467 10.508L195.43 10.3993Z" fill="var(--icon-fill, #F8F2F2)"/>
<path d="M209.376 22.4653C208.357 24.3133 207.373 25.0017 207.009 25.0017C206.754 25.0017 206.609 24.8206 206.609 24.3133C206.609 22.3566 207.81 17.6824 208.357 14.9286C208.611 13.6604 208.721 13.0806 208.721 12.4284C208.721 10.7979 207.883 10.3993 207.155 10.3993C204.606 10.3993 201.147 13.298 197.943 20.0739C198.635 17.6099 201.365 4.20319 202.239 0.108702L202.057 0C201.293 0.724688 199.581 1.77549 198.198 1.84796V2.02913C198.744 2.02913 199.217 2.2103 199.217 3.00746C199.217 4.85541 195.503 21.2334 194.265 26.1975C194.12 26.8497 193.683 27.2483 193.173 27.5019V27.6831C193.573 27.6469 194.556 27.6106 195.321 27.6106C195.94 27.6106 196.96 27.6469 197.397 27.6831V27.5019C196.923 27.212 196.741 26.8859 196.741 26.5236C196.741 21.8856 201.693 12.5733 205.116 12.5733C205.771 12.5733 205.99 12.9357 205.99 13.7328C205.99 14.4575 205.771 15.5446 205.48 16.9215C204.57 21.016 203.113 25.9801 203.113 26.9584C203.113 27.7193 203.441 27.973 203.878 27.973C205.189 27.973 207.301 26.5961 209.595 22.6465L209.376 22.4653Z" fill="var(--icon-fill, #F8F2F2)"/>
<path d="M17.6513 2.0208H0V29.6008H3.67584V17.4438H17.4329V14.1778H3.67584V5.28686H17.6513V2.0208Z" fill="var(--icon-var, #F8F2F2)"/>
<path d="M34.7212 17.8067C38.4334 16.718 40.6535 13.96 40.6535 10.1859C40.6535 5.21428 36.8321 2.0208 30.7178 2.0208H20.5273V29.6008H24.2032V18.3511H30.7178H30.827L37.4872 29.6008H41.7817L34.7212 17.8067ZM30.7906 5.28686C34.5392 5.28686 36.8321 7.02875 36.8321 10.1859C36.8321 13.3431 34.5392 15.085 30.7906 15.085H24.2032V5.28686H30.7906Z" fill="var(--icon-var, #F8F2F2)"/>
<path d="M47.8937 29.6008V2.0208H44.2179V29.6008H47.8937Z" fill="var(--icon-var, #F8F2F2)"/>
<path d="M56.3014 17.0084H70.386V13.7423H56.3014V5.28686H70.6408V2.0208H52.6255V29.6008H70.9684V26.3348H56.3014V17.0084Z" fill="var(--icon-var, #F8F2F2)"/>
<path d="M94.4155 29.4557L81.9322 2.0208H74.3257V29.6008H78.0016V2.16596L90.4849 29.6008H98.0913V2.0208H94.4155V29.4557Z" fill="var(--icon-var, #F8F2F2)"/>
<path d="M102.814 2.0208V29.6008H112.241C120.502 29.6008 125.961 24.7743 125.961 15.8108C125.961 6.84731 120.502 2.0208 112.241 2.0208H102.814ZM106.49 26.3348V5.28686H112.35C118.537 5.28686 122.14 9.06096 122.14 15.8108C122.14 22.5969 118.537 26.3348 112.35 26.3348H106.49Z" fill="var(--icon-var, #F8F2F2)"/>
<path d="M137.943 30C144.713 30 149.189 26.5525 149.189 21.6171C149.189 17.2987 146.678 15.339 141.11 14.1052L137.652 13.3431C133.394 12.3996 131.611 11.5286 131.611 8.91581C131.611 6.37554 134.377 4.70623 137.87 4.70623C141.219 4.70623 143.766 6.04894 144.64 9.20612H148.461C147.661 4.66994 143.694 1.62162 137.87 1.62162C132.302 1.62162 127.898 4.88767 127.898 9.2787C127.898 13.4157 131.028 15.5931 135.359 16.5366L138.817 17.2987C143.257 18.2785 145.477 19.0043 145.477 22.0163C145.477 24.8832 142.82 26.9154 137.943 26.9154C134.231 26.9154 131.356 25.0283 130.846 21.2905H127.025C127.862 26.6977 132.084 30 137.943 30Z" fill="var(--icon-var, #F8F2F2)"/>
</svg>
