<svg width="64" height="64" viewBox="0 0 64 64" fill="none" xmlns="http://www.w3.org/2000/svg">
<circle cx="32" cy="32" r="32" fill="#F8F2F2"/>
<path d="M38.9335 22.9256C39.2946 22.3182 40.0554 22.2501 40.716 22.1402C40.8984 22.1098 41.0821 22.0891 41.2644 22.0606C41.3655 22.0445 41.4726 22.022 41.5089 22.151C41.5487 22.2957 41.4436 22.355 41.3297 22.3795C41.101 22.4288 40.8707 22.4732 40.6392 22.5045C40.1463 22.5711 39.8254 22.5283 39.3917 22.7831C39.3308 22.8225 38.87 23.0325 38.9335 22.9256Z" fill="#0C0C0C"/>
<path d="M53.325 30.638C53.997 29.8679 53.743 28.9393 53.2143 28.3999C52.5107 27.6818 51.557 27.4446 50.6057 27.3132C49.1068 27.1048 47.6069 27.1414 46.1323 27.5321C45.9512 27.5799 45.8549 27.5421 45.7521 27.3823C45.5332 27.0407 45.2432 26.7633 44.8564 26.6142C44.6983 26.5545 44.6699 26.455 44.692 26.3025C44.7563 25.8563 44.9225 25.4479 45.1285 25.0516C45.1709 24.97 45.2463 24.8592 45.2463 24.8592C45.5449 24.9872 45.4733 25.384 45.7157 25.3398C45.9974 25.2887 45.7669 24.6687 45.4968 24.5039C45.4968 24.5039 45.7492 24.2494 45.8316 24.1783C45.9401 24.084 46.0533 23.9953 46.171 23.9126C46.591 23.6212 47.0245 23.3466 47.3024 22.8966C47.5042 22.5702 47.5596 22.2245 47.3709 21.8843C47.1764 21.534 46.8396 21.4335 46.4576 21.4705C46.155 21.4998 45.8734 21.6009 45.6026 21.7366C45.5395 21.7683 45.4701 21.8537 45.397 21.7808C45.3347 21.7185 45.3783 21.629 45.4064 21.5603C45.5007 21.3342 45.6308 21.1246 45.7916 20.9397C46.254 20.3966 46.8032 19.9446 47.3392 19.4811C47.8454 19.0432 47.9617 18.7343 47.772 18.2761C47.4979 17.6138 46.6258 17.4203 45.955 17.863C45.6391 18.0717 45.4199 18.3776 45.1615 18.6591C45.0953 18.5438 45.1416 18.4588 45.1528 18.3759C45.323 17.0983 45.361 15.8253 45.0427 14.5619C44.7409 13.3639 44.147 12.4379 42.8362 12.1676C42.6321 12.1254 42.4335 12.0565 42.2324 12H41.0964C41.0709 12.0187 41.0479 12.0462 41.0194 12.0545C40.0054 12.3453 39.5693 12.8996 39.5291 13.9523C39.5044 14.6021 39.8089 14.9175 40.4628 14.9293C40.9852 14.9386 41.4748 14.7802 41.9591 14.6214C42.1902 14.5456 42.2713 14.6174 42.3646 14.8075C42.6447 15.3771 42.7577 15.9893 42.825 16.6079C42.9843 18.0662 42.866 19.5191 42.6982 20.97C42.6057 21.7697 42.5177 22.5696 42.3441 23.3635C41.5035 22.9666 41.3534 22.9151 40.9157 22.9891C39.8691 23.1659 39.2086 23.8356 38.7591 24.7431C38.4072 25.4535 38.2913 26.2237 38.2682 27.0087C38.2631 27.1842 38.2402 27.3052 38.0274 27.2031C37.4742 26.9378 36.8768 26.8196 36.2793 26.7474C35.2942 26.6279 34.3011 26.5605 33.3502 26.9603C32.8724 27.1605 32.5368 27.484 32.4373 28.0197C32.2876 28.8268 32.4771 29.5612 32.878 30.2588C33.1979 30.8161 34.1349 31.7965 34.1349 31.7965L31.1737 31.8385V32.1422L34.5694 32.2053L34.7866 32.3916L31.1813 32.4469L31.1737 32.8177L35.2975 32.7721C35.2975 32.7721 38.1014 34.2298 39.5472 34.4304C39.6746 34.4481 39.7381 34.5321 39.8181 34.6058C40.3498 35.0946 40.8884 35.5762 41.4093 36.0766C41.6084 36.2684 41.7937 36.28 42.0415 36.1874C42.6881 35.9458 43.2172 35.5221 43.7695 35.1304C44.0014 34.9658 44.2101 34.7335 44.5106 34.7085C45.5457 34.6217 46.5629 34.4577 47.5534 34.1371C47.6113 34.1184 47.731 34.0805 47.731 34.0805L48.0966 34.5879C48.0966 34.5879 47.3854 36.6562 48.4446 37.7239C48.4794 37.7588 48.5132 37.8382 48.5308 37.9011C48.9488 39.3952 49.3071 40.902 49.1588 42.4688C49.0493 43.6193 48.6759 44.6624 47.6688 45.3563C46.9743 45.8339 46.1929 46.1273 45.3785 46.3229C43.6505 46.7385 41.8926 46.8038 40.135 46.6326C38.2362 46.4477 36.4525 45.9137 34.987 44.6025C34.1621 43.8641 33.6581 42.9769 33.6922 41.8349C33.7302 40.5565 34.2246 39.4163 34.8033 38.3162C35.4433 37.0992 37.7075 34.159 37.4631 34.068C37.3082 34.0103 36.3513 35.292 36.3513 35.292L31.1737 35.2488V35.6252L36.0675 35.708C35.835 36.0043 35.5454 36.311 35.3445 36.5875C34.4253 37.8521 33.6279 39.1749 33.2889 40.7312C32.8436 42.7741 33.6408 44.4242 35.3559 45.5208C36.0327 45.9535 38.0105 46.7588 38.0105 46.7588L38.4749 49.3567C38.4749 49.3567 36.3402 49.1499 34.9418 49.5416C34.1299 49.7691 33.6496 50.0989 33.6496 50.0989C34.8041 49.7406 36.26 49.6234 37.642 49.7725C37.7489 49.784 36.582 49.9496 36.0321 50.1258C35.4946 50.2979 34.9066 50.5356 34.449 50.8872C34.5485 50.8805 36.7761 50.3725 37.5377 50.2133C38.4733 50.0175 39.6489 49.7693 40.6127 50.074C40.6665 50.0911 40.7292 50.1007 40.7606 50.0442C40.7738 50.0183 40.7768 49.9885 40.769 49.9606C40.7612 49.9326 40.7432 49.9086 40.7186 49.8933C39.9873 49.4367 38.962 49.3758 38.962 49.3758L38.5425 46.883C40.3034 47.2761 43.4313 47.2424 45.1522 46.8971L44.0196 49.9381C44.0196 49.9381 43.0322 49.9978 42.7157 50.0826C42.6759 50.0933 42.5937 50.1367 42.579 50.1753C42.5643 50.2139 42.5862 50.273 42.6998 50.2965C42.8193 50.321 43.8846 50.2203 45.0992 50.5105C46.5324 50.8526 47.8912 51.3265 49.144 51.9654C48.4724 51.1909 46.664 50.4971 46.3463 50.4329C46.8465 50.4633 49.3521 51.0192 49.5836 51.0662C49.2332 50.7967 48.814 50.6383 48.3924 50.5186C47.943 50.391 47.4874 50.286 47.0275 50.204C46.4144 50.0947 45.7963 50.0296 45.1763 49.9821C44.9517 49.9649 44.7272 49.9572 44.5023 49.9494C44.513 49.9494 45.7802 46.6883 45.7908 46.6854C45.7908 46.6854 46.7124 46.3651 47.0595 46.2077C48.6277 45.4934 49.1956 44.4871 49.5949 43.0782C49.7494 42.5336 49.7701 41.8727 49.7701 41.8727C49.7701 41.8727 50.5444 41.5467 50.6658 40.3153C50.8979 40.485 51.1623 40.6672 51.4455 40.7084C51.6936 40.7442 51.8892 40.6212 51.8699 40.3344C51.8405 39.8965 51.4943 39.3922 51.4943 39.3922C51.5299 39.1424 51.5401 38.8897 51.5248 38.6379C51.5074 38.3943 51.3086 37.456 51.3086 37.456C51.3086 37.456 51.9294 38.3041 52.1468 38.579C52.3009 38.7738 52.7028 39.2431 53.0009 39.0869C53.2665 38.9476 53.1978 38.6534 53.1664 38.4205C52.8909 36.3803 50.6921 32.7801 50.6921 32.7801C50.6921 32.7801 52.6168 31.4494 53.325 30.638ZM45.3793 27.3639C45.9028 28.084 45.8841 28.872 45.2937 29.5224C44.7387 30.1336 43.7922 30.4544 42.9536 29.9006C43.423 29.604 43.5611 29.3194 43.4005 29.0131C43.2229 28.6747 42.9518 28.6238 42.3949 28.8254C42.2422 28.0036 42.6453 27.1842 43.3561 26.8714C44.1233 26.5338 44.9157 26.7267 45.3793 27.3639ZM42.8332 29.1287C42.8216 29.0093 42.907 28.9562 42.9964 28.9253C43.1212 28.94 43.2088 28.9902 43.2098 29.1088C43.2098 29.2181 43.1501 29.2985 43.0297 29.3078C42.9045 29.3162 42.8437 29.237 42.8332 29.1287ZM42.8708 23.673C43.1652 21.7352 43.3619 19.7888 43.3262 17.8247C43.3063 16.698 43.2391 15.5775 42.8408 14.5076C42.8208 14.455 42.7792 14.3471 42.7792 14.3471C42.7792 14.3471 42.8469 14.2761 43.0034 14.2122C43.2116 14.127 43.5305 14.0271 43.4465 13.9734C42.9544 13.7586 42.4092 14.0494 41.9579 14.1937C41.5744 14.3165 41.1926 14.4228 40.7835 14.4158C40.2461 14.4062 39.9674 14.0301 40.1153 13.5003C40.298 12.8481 40.9537 12.3758 41.7089 12.3523C42.9596 12.3125 44.0518 13.1028 44.4306 14.2994C45.0007 16.0992 44.8208 17.9038 44.4877 19.7113C44.4615 19.853 44.433 19.9943 44.4095 20.1365C44.4071 20.1514 44.432 20.1709 44.4579 20.2075C44.851 20.0029 45.0242 19.6041 45.2684 19.2751C45.6118 18.8127 45.8959 18.2956 46.5048 18.1195C46.7805 18.0399 47.051 17.9742 47.259 18.2588C47.4182 18.4778 47.4539 18.6935 47.2763 18.9256C46.8621 19.4675 46.3113 19.8745 45.8568 20.3765C45.4679 20.8062 45.0893 21.2426 44.9201 21.8143C44.8812 21.9419 44.8544 22.0729 44.8399 22.2055C44.8305 22.2991 44.7917 22.4205 44.8956 22.482C45.0128 22.5513 45.1271 22.5045 45.2354 22.4285C45.6009 22.1719 45.9771 21.9309 46.4297 21.866C46.8547 21.8063 47.0978 22.2897 46.9274 22.688C46.8408 22.89 46.1453 23.3165 45.7908 23.5858C45.5202 23.7912 45.0322 24.3383 45.0322 24.3383C45.0322 24.3383 44.215 24.288 44.1629 24.6401C44.1366 24.8168 44.3124 24.7396 44.5536 24.7089C44.681 24.6924 44.8494 24.7346 44.8494 24.7346C44.8494 24.7346 44.7445 24.902 44.6703 25.0303C44.4627 25.3886 44.3717 25.8133 44.2847 26.216C44.2051 26.5919 43.9053 26.3811 43.7106 26.4221C43.5044 26.4653 43.5775 26.2661 43.5713 26.1634C43.5339 25.4515 43.3452 24.7871 42.9789 24.1731C42.8901 24.0213 42.8408 23.8718 42.8708 23.673ZM38.7977 25.5932C39.0667 24.8142 39.5342 24.1075 40.2457 23.6129C40.9571 23.1183 41.7037 23.2037 42.2561 23.8806C42.8499 24.6086 43.1101 25.4746 43.2116 26.3945C43.2253 26.5205 42.8159 26.864 42.7128 26.819C42.6192 26.7792 42.6612 26.6825 42.6489 26.6124C42.5503 26.0508 41.9902 25.6656 41.443 25.7876C40.8874 25.9118 40.5196 26.4894 40.6637 27.0312C40.7871 27.4951 41.2318 27.9441 42.0457 27.7676C41.8753 28.2773 41.8829 28.7472 42.0445 29.2101C42.1042 29.3843 41.9874 29.449 41.8835 29.5304C41.1253 30.1219 40.0191 29.9682 39.4062 29.1277C38.6293 28.0603 38.3642 26.8489 38.7977 25.5932ZM42.2287 26.5619C42.2088 26.749 42.08 26.8441 41.9 26.8735C41.7143 26.8325 41.5935 26.7235 41.5899 26.5378C41.5859 26.3407 41.7229 26.2275 41.9056 26.2313C42.0973 26.2355 42.2521 26.337 42.2287 26.5619ZM51.3309 39.7065C51.3309 39.7065 51.5437 40.086 51.551 40.2251C51.56 40.3917 51.3743 40.2954 51.2799 40.2554C51.0443 40.1541 50.8326 40.0042 50.6589 39.8155C50.5135 39.6603 50.4027 39.6499 50.3404 39.8806C50.2106 40.3666 50.0418 41.1146 49.705 41.3628C49.5437 39.8302 49.319 38.8948 48.8291 37.4968C48.8291 37.4968 49.1395 36.4651 49.2591 36.2332C49.4422 37.1939 50.242 38.9541 50.6694 39.4814C50.9252 39.795 51.3309 39.7065 51.3309 39.7065ZM51.8466 35.7136C52.4438 36.9758 52.7895 38.086 52.8461 38.335C52.8694 38.4371 52.9257 38.5831 52.8218 38.6411C52.7129 38.7022 52.6182 38.578 52.5527 38.4956C52.3256 38.2098 52.1016 37.9206 51.8906 37.6228C51.5892 37.1975 51.3014 36.7628 51.0054 36.3339C50.9632 36.2728 50.9214 36.1787 50.8328 36.2028C50.7134 36.2354 50.7568 36.353 50.7671 36.4297C50.8468 37.0134 51.2176 38.6365 51.227 38.9141C51.2367 39.1991 51.2294 39.2899 51.1304 39.3008C51.0385 39.3112 50.8143 39.1595 50.4948 38.4552C50.2834 37.9892 50.0191 37.2347 49.8017 36.5644C49.6307 36.0366 49.5055 35.5205 49.3463 35.5096C49.0575 35.4908 48.6926 36.6241 48.5592 37.092C48.0228 36.6157 48.4237 34.4276 48.6753 33.9356L48.2897 34.1745L48.1076 33.9402L50.291 32.9877C50.291 32.9877 50.9841 33.8913 51.8466 35.7136ZM46.3704 34.0551C45.9677 34.1491 45.5574 34.2074 45.1444 34.2294C45.5517 33.8996 46.3722 33.3041 46.7345 32.9308C46.9384 32.9013 47.138 32.8471 47.3289 32.7693C48.7539 32.2005 49.8873 31.2332 50.924 30.1392C50.9998 30.0596 51.1328 29.9167 51.1328 29.9167C51.1328 29.9167 51.3956 29.9893 51.8016 30.3506C51.812 30.3599 52.0292 29.9678 50.8298 29.3228C49.9886 28.8702 48.9713 28.4869 48.2714 28.8161C48.5832 28.8287 48.8896 28.9021 49.1733 29.0322C49.1733 29.0322 49.1335 29.2018 49.0698 29.3142C48.2949 30.6811 47.2584 31.8321 46.0981 32.8724C44.8555 33.9819 43.5048 34.964 42.0662 35.8041C41.8769 35.9152 41.7732 35.9146 41.6174 35.7504C40.3561 34.4211 39.1509 33.0466 38.0875 31.5509C37.5915 30.8529 37.1356 30.134 36.7843 29.3508C36.6692 29.0943 36.6051 28.826 36.5361 28.5571C36.472 28.3101 36.5775 28.2235 36.81 28.2522C37.094 28.2874 37.3775 28.3282 37.6713 28.328C37.3114 27.9797 36.8571 27.9081 36.388 27.9268C35.583 27.959 34.9446 28.3026 34.4607 29.0392C34.7247 28.9769 34.8533 28.9761 34.9783 29.2368C35.6232 30.5739 36.4883 31.74 37.7965 32.5134C38.497 32.9274 38.7647 33.1793 39.2464 33.9187C38.574 33.861 37.9525 33.6512 37.3474 33.4058C36.2492 32.9626 35.2575 32.2915 34.4376 31.437C33.7596 30.7337 33.1977 29.9557 32.9559 28.9862C32.9014 28.7699 32.8806 28.5465 32.8943 28.3239C32.932 27.7192 33.2367 27.3486 33.8335 27.2411C35.1614 27.0023 36.4698 27.0781 37.7477 27.5349C38.1307 27.6718 38.3871 27.8782 38.5041 28.3181C38.6944 29.0314 39.1845 29.6605 39.8515 29.9861C40.1811 30.1483 40.5454 30.2271 40.9125 30.2158C41.0989 30.2089 41.2837 30.1785 41.4625 30.1253C41.6307 30.0753 41.8246 29.9278 41.9962 29.9213C41.9816 30.0325 41.8618 30.1056 41.7728 30.1619C41.5421 30.3078 41.315 30.472 41.0668 30.5798C40.7881 30.6993 40.5007 30.793 40.2162 30.8955C41.1309 30.9713 41.8065 30.6668 42.3969 30.128C43.1869 30.9472 44.5682 31.2346 45.5593 30.7408C45.1749 30.7408 44.8544 30.7504 44.5345 30.7383C44.2033 30.7259 43.8764 30.6758 43.4897 30.5163C43.8898 30.4897 44.2168 30.5502 44.5337 30.4542C45.5688 30.1414 46.1333 29.3112 46.0465 28.1935C46.031 27.9945 46.0465 27.887 46.2683 27.8416C47.8944 27.5072 49.6833 27.4834 51.3076 27.8932C52.7535 28.2574 53.8595 29.3094 52.9966 30.2731C52.2871 31.0653 51.8221 31.4321 51.0259 31.9802C49.6041 32.958 48.0518 33.6562 46.3704 34.0551ZM47.3338 32.4031L48.3329 31.125L48.6755 31.5604C48.5572 31.6726 48.4302 31.775 48.2955 31.8668C48.0144 32.053 47.7333 32.2415 47.3338 32.4027V32.4031ZM49.6148 30.8091C49.6188 30.9257 49.0943 31.4 49.0003 31.3706C48.8767 31.3308 48.5789 30.8778 48.6402 30.7229C48.7177 30.5269 48.8883 30.3527 49.0533 30.2751C49.1395 30.2343 49.5563 30.6931 49.6148 30.8087V30.8091ZM49.5842 29.2812C49.627 29.2143 49.6837 29.157 49.7661 29.1687C50.048 29.2714 50.3907 29.353 50.6437 29.5668C50.7383 29.6464 50.7482 29.736 50.6726 29.8255C50.4815 30.0534 50.2884 30.2797 50.089 30.5002C49.9958 30.6031 49.8981 30.5882 49.8113 30.4767C49.7498 30.3992 49.6841 30.3251 49.6144 30.2548C49.2798 29.9117 49.3228 29.6902 49.5842 29.2808V29.2812ZM37.937 32.143C37.5644 31.9593 37.3291 31.7296 37.0811 31.5214C36.9005 31.3698 37.1324 31.3073 37.1806 31.2092C37.2375 31.0897 37.3231 31.126 37.3765 31.2173C37.5417 31.5015 37.7716 31.7471 37.937 32.143ZM35.9759 30.1776C36.0983 30.0359 36.3006 29.9629 36.4427 29.8757C36.6477 29.8811 37.0261 30.6376 36.9342 30.7884C36.7317 31.1204 36.6229 31.1315 36.3716 30.8445C36.2847 30.745 36.1879 30.6511 36.1184 30.5402C36.049 30.4294 35.8682 30.3022 35.9759 30.1776ZM35.4817 29.4991C35.4448 29.4195 35.4124 29.3367 35.3752 29.2567C35.1711 28.8174 35.4335 28.4236 35.9303 28.423C36.0088 28.423 36.0818 28.414 36.1095 28.5193C36.1837 28.7965 36.2657 29.0716 36.3531 29.3773C36.3493 29.5654 36.1499 29.5867 36.0213 29.6681C35.6783 29.8854 35.6535 29.8739 35.4817 29.4991Z" fill="#0C0C0C"/>
<path d="M43.2151 31.1865C43.1305 30.9045 42.6826 30.7566 42.6826 30.7566C42.6826 30.7566 42.5218 31.0623 42.5632 31.3796C42.5992 31.649 42.8741 31.7669 43.0626 31.6906C43.2512 31.6144 43.2872 31.4275 43.2151 31.1865ZM42.9687 31.4534C42.8881 31.4757 42.7993 31.4325 42.783 31.3214C42.7563 31.1411 42.7973 31.0398 42.7973 31.0398C42.7973 31.0398 42.9366 31.0995 43.0017 31.2289C43.0565 31.3384 43.0511 31.4307 42.9687 31.4534Z" fill="#0C0C0C"/>
<path d="M42.0133 31.5024C42.1737 31.3159 42.071 30.8237 42.071 30.8237C42.071 30.8237 41.7724 30.9205 41.5684 31.093C41.395 31.2395 41.3952 31.511 41.5337 31.6105C41.6723 31.71 41.8771 31.6618 42.0133 31.5024ZM41.7041 31.4043C41.6378 31.3545 41.647 31.2849 41.7186 31.2079C41.8224 31.0966 41.9103 31.0952 41.9103 31.0952C41.9103 31.0952 41.9513 31.1929 41.8775 31.3119C41.8285 31.3922 41.7692 31.4525 41.7049 31.4043H41.7041Z" fill="#0C0C0C"/>
<path d="M29.929 32.412L30.2154 32.2076L32.4305 32.157V31.8338L30.6308 31.8266C31.2234 31.1774 31.9338 30.4496 32.2181 29.6174C32.5024 28.7853 32.3773 27.7466 31.6878 27.202C31.2614 26.8651 30.6957 26.7661 30.1533 26.7303C28.9163 26.6496 27.6764 26.8373 26.5187 27.2806C26.5703 25.8381 25.9711 24.3846 24.9179 23.3972C25.2802 23.0945 25.6586 22.7687 25.8095 22.3215C25.9604 21.8742 25.7743 21.2782 25.3168 21.1613C24.6347 20.987 23.8004 21.9959 23.5076 22.3219L23.043 22.3796C23.1682 21.4863 23.8303 20.7675 24.526 20.1925C25.2217 19.6175 25.9978 19.11 26.5082 18.3664C27.0186 17.6228 27.1866 16.5415 26.6065 15.8509C25.9576 15.0781 24.6586 15.179 23.8773 15.818C23.096 16.4571 22.7247 17.4626 22.4626 18.4372C22.2004 19.4119 22.0048 20.4309 21.4572 21.2782C21.0815 20.5278 21.9608 19.4768 21.4034 18.85C21.1546 18.5702 20.7023 18.5449 20.3683 18.7139C20.0343 18.8829 19.803 19.2053 19.6388 19.5418C19.0054 20.8401 19.2152 22.3662 19.2745 23.8096C19.2787 23.9145 19.2795 24.0285 19.2162 24.1121C19.0631 24.3153 18.7255 24.1408 18.6127 23.9131C18.4998 23.6854 18.4638 23.3988 18.2577 23.2493C18.0089 23.0688 17.6321 23.2081 17.4593 23.4625C17.2865 23.7168 17.266 24.0421 17.2654 24.3496C17.2634 25.3694 17.4158 26.3837 17.7175 27.3579C15.9704 27.1901 14.1411 27.127 12.5307 27.8256C11.7082 28.1824 10.8831 28.9224 11.0137 29.8093C11.0854 30.2953 11.4317 30.6914 11.7807 31.0369C12.465 31.7134 13.2198 32.3148 14.0322 32.8307C14.0023 32.8108 13.5039 33.4662 13.4565 33.5285C13.2707 33.7737 13.0949 34.0262 12.929 34.286C12.2656 35.3265 11.7738 36.4668 11.4723 37.6633C11.3644 38.0922 10.9112 39.2593 11.449 39.5314C11.7504 39.684 12.2106 39.0211 12.4127 38.8316C12.6746 38.5862 12.9664 38.1549 13.1293 37.8365C13.1018 38.3458 12.9087 38.8266 12.9302 39.3791C12.9422 39.6976 12.9646 39.8078 12.9535 39.9692C12.9483 40.0443 12.9437 40.1183 12.94 40.191C12.9322 40.3366 12.8685 40.5635 12.9599 40.6778C13.1247 40.8852 13.7177 40.6457 13.9762 40.3641C14.9102 41.5782 15.2036 43.1505 15.8107 44.5582C16.6082 46.4056 18.9045 46.7714 18.9045 46.7714C18.9045 46.7714 19.885 49.1082 20.2113 49.9801C18.5233 50.0271 16.8577 50.3784 15.2946 51.0171L18.3764 50.5545C17.3975 50.8391 16.4918 51.3322 15.7216 51.9999C17.6098 51.0999 20.0966 50.2882 21.6785 50.2807C21.862 50.2807 21.9799 50.2856 22.0169 50.1913C22.0434 50.1236 22.0103 50.0589 21.8559 50.0002C21.5708 49.8922 20.6378 49.9405 20.6378 49.9405L19.5697 46.9565C21.7195 47.1842 23.5249 47.4503 26.1206 46.8554C26.1901 47.4091 25.827 49.4939 25.827 49.4939C25.827 49.4939 24.7123 49.673 24.3409 49.7807C24.1675 49.8313 24.0148 49.8764 24.0138 50.0243C24.0138 50.1778 24.1134 50.2034 24.2941 50.1792C24.6494 50.1302 25.2145 50.0124 25.8467 49.9971C27.3197 49.9614 28.8841 50.5862 30.3737 51.0093C29.4054 50.3447 28.3857 49.8151 27.2166 49.7023C28.5372 49.6659 29.7424 49.8814 31.0431 50.1139C29.5822 49.3457 27.9016 49.103 26.2831 49.4266C26.303 49.424 26.7343 46.7378 26.7343 46.7378C26.7343 46.7378 29.9011 45.9791 30.9911 43.8634C31.0421 43.7639 31.0924 43.6644 31.137 43.5633C31.7219 42.223 31.5845 40.629 30.9778 39.2981C30.3822 37.9899 29.4474 36.6445 28.6815 35.6285L32.4291 35.6462V35.2626L28.4215 35.2167C28.4215 35.2167 27.4242 34.0167 27.1625 34.1389C26.9423 34.242 28.2503 35.6233 29.4809 37.653C30.1577 38.7675 30.7747 39.8552 30.8966 40.9506C30.9782 41.6807 31.0928 42.4306 30.8677 43.13C30.4469 44.4362 29.1708 45.2693 27.903 45.795C24.957 47.0164 21.5658 47.1285 18.5474 46.1015C17.7488 45.83 16.9456 45.4596 16.4151 44.804C15.9475 44.2268 15.7383 43.4795 15.6447 42.7417C15.3358 40.2825 16.3016 37.7262 17.1576 35.3994C16.9006 35.6127 16.6758 35.9266 16.5502 36.2421C16.3745 35.6314 16.2536 34.8453 16.7692 34.4735C17.0521 34.2693 17.4595 34.2926 17.8031 34.3541C18.5925 34.4934 20.9283 35.0618 22.2388 35.9871C22.4777 36.1565 22.7538 36.3469 23.0398 36.2803C23.2532 36.2307 23.4061 36.0502 23.555 35.8894C23.9794 35.4316 24.812 34.5244 25.1568 34.4669C26.0326 34.3206 26.6002 34.1497 27.3946 33.8483C28.0568 33.5974 29.3732 32.8657 29.3732 32.8657L32.4311 32.8048V32.4289L29.929 32.412ZM26.0741 26.1227C26.2763 27.0227 26.0442 27.853 25.656 28.6641C25.3511 29.3026 24.906 29.7561 24.1974 29.9016C23.6858 30.0067 23.2343 29.8501 22.8205 29.5501C22.6909 29.4562 22.6652 29.3485 22.7178 29.2046C22.8802 28.76 22.873 28.3124 22.7086 27.8373C23.5247 27.9129 24.0437 27.5786 24.1106 26.9654C24.1693 26.428 23.7827 25.9141 23.2546 25.8309C22.6575 25.7356 22.198 26.1358 22.0603 26.8698C21.5067 26.6674 21.4936 26.6652 21.5796 26.1366C21.6962 25.4201 21.9237 24.7406 22.3422 24.1338C22.973 23.2183 23.9179 23.0883 24.7308 23.8335C25.4098 24.4556 25.871 25.2195 26.0741 26.1233V26.1227ZM22.5225 26.5617C22.5396 26.3661 22.6855 26.2702 22.8657 26.2831C22.9428 26.2875 23.0156 26.3206 23.0697 26.3758C23.1238 26.431 23.1553 26.5044 23.1581 26.5817C23.1595 26.6377 23.1465 26.6931 23.1204 26.7427C23.0943 26.7923 23.0558 26.8344 23.0088 26.8649C22.7882 27.0068 22.5002 26.8187 22.5225 26.5623V26.5617ZM21.3435 29.083C21.1936 29.3909 21.3419 29.6801 21.7752 29.9269C21.2487 30.3821 20.3765 30.3385 19.7309 29.8246C18.9853 29.2315 18.7916 28.4362 19.205 27.666C19.5928 26.9435 20.4089 26.5928 21.1506 26.83C22.0265 27.1105 22.4855 27.8765 22.3664 28.8898C21.8238 28.6645 21.5173 28.727 21.3435 29.0836V29.083ZM21.9128 29.1686C21.9098 29.2795 21.8439 29.3477 21.7446 29.3579C21.6074 29.3446 21.5489 29.2681 21.5537 29.1589C21.5587 29.042 21.6405 28.9827 21.7543 28.9933C21.8531 29.002 21.9152 29.0719 21.9128 29.1692V29.1686ZM23.0178 22.8119C23.0178 22.8119 23.5673 22.7522 23.7704 22.7124C24.1088 22.6467 24.3277 22.8387 24.3251 22.8598C24.3383 22.7748 24.2822 22.4916 23.9599 22.4134C24.1946 22.1431 24.6142 21.6647 25.0348 21.6647C25.1783 21.6647 25.2936 21.801 25.3091 21.9433C25.3246 22.0856 25.2621 22.2255 25.1881 22.3485C25.0849 22.514 24.9648 22.6683 24.8298 22.8089C24.7346 22.911 24.5833 23.1335 24.4376 23.1584C24.3973 23.1636 24.3563 23.1617 24.3166 23.1526C24.1293 23.1176 23.9605 23.0698 23.768 23.0652C23.5564 23.0603 23.0464 23.0652 23.0464 23.0652L23.0178 22.8119ZM17.6343 24.6196C17.6337 24.5079 17.6387 24.3961 17.6494 24.2849C17.6733 24.0632 17.7022 23.8032 17.9128 23.7423C18.1463 23.6747 18.2114 23.9883 18.3308 24.1487C18.461 24.3239 18.5665 24.5173 18.7488 24.6479C19.0339 24.8527 19.2968 24.795 19.4712 24.4863C19.6149 24.2337 19.6925 23.9489 19.6969 23.6583C19.7047 23.1914 19.6989 22.7241 19.6989 22.257C19.7096 21.6346 19.6615 21.0095 19.7851 20.3933C19.8846 19.8923 20.0578 19.429 20.5415 19.1613C20.8512 18.9901 21.0192 19.0711 21.0766 19.4232C21.1164 19.6692 21.0754 19.9102 21.0244 20.1509C20.9531 20.4892 20.8821 20.8254 20.9014 21.1745C20.9175 21.4648 21.0471 21.6738 21.3381 21.7248C21.614 21.7733 21.8557 21.6639 21.9663 21.4014C22.1176 21.0464 22.2468 20.6824 22.3533 20.3115C22.6354 19.3193 22.9095 18.326 23.2905 17.3649C23.4528 16.9519 23.6857 16.5702 23.9788 16.237C24.3371 15.83 24.8702 15.6598 25.3965 15.7991C25.7964 15.904 26.1487 16.1574 26.3063 16.5493C26.4538 16.9163 26.4093 17.3402 26.2556 17.7048C26.0299 18.2404 25.5963 18.6494 25.156 19.0122C24.7032 19.3854 24.2374 19.7401 23.8193 20.1535C23.4642 20.5047 23.1426 20.8915 22.8886 21.3223C22.7242 21.5996 22.6085 21.903 22.5466 22.2194C22.5359 22.297 22.5297 22.3752 22.5281 22.4536L21.8389 22.5764C21.7721 22.5892 21.6827 22.6178 21.7143 22.7661C21.746 22.9144 21.8583 22.8976 21.8583 22.8976L22.5975 22.8164L22.7017 23.2038C22.7017 23.2038 21.6528 23.6096 21.1914 26.1295C21.1906 26.1345 21.1902 26.1397 21.19 26.1448C21.1669 26.4071 21.1325 26.4993 20.8427 26.4831C20.0576 26.4391 19.4515 26.7882 18.9996 27.4208C18.9582 27.4787 18.9276 27.5656 18.8603 27.5999C18.785 27.6397 18.6923 27.5999 18.6168 27.58C18.5414 27.5601 18.4576 27.5539 18.3823 27.5264C18.1743 27.4506 18.1381 27.1548 18.0784 26.9692C17.9968 26.7162 17.9213 26.461 17.8568 26.2031C17.7284 25.6854 17.6434 25.155 17.6343 24.6202V24.6196ZM15.1407 41.1144C15.1407 41.1543 15.1317 41.1936 15.1144 41.2295C15.0945 41.2637 15.0531 41.2892 15.0149 41.2773C14.9811 41.2665 14.9622 41.2317 14.9466 41.1998C14.7416 40.7777 14.5758 40.3404 14.3957 39.9075C14.3724 39.8514 14.3427 39.781 14.2788 39.7623C14.2046 39.7404 14.1355 39.8042 14.0829 39.8618C13.8897 40.0709 13.4812 40.3512 13.3056 40.4208C13.1301 40.4905 13.1717 39.983 13.2857 40.0248C13.514 40.1098 13.8954 39.6333 14.0903 39.3525C14.3162 39.027 14.4946 38.6706 14.6387 38.3022C14.7796 37.9413 14.8987 37.572 15.0312 37.2075C15.0492 37.1588 15.0804 37.0959 15.1216 37.0794C15.1855 37.0535 15.2056 37.1218 15.2291 37.1725C15.3772 37.4923 15.5394 37.854 15.8105 38.1012C15.8107 38.1008 15.2162 40.1716 15.1407 41.1144ZM16.5512 34.1702C16.5471 34.1765 16.5429 34.1827 16.5385 34.1889L16.3574 34.4536C16.2312 34.6379 16.09 34.5459 15.9837 34.3979C15.9473 34.3471 15.8386 34.2456 15.766 34.2729C15.5932 34.3378 15.839 34.8885 15.8693 34.9924C15.9588 35.2995 16.0333 35.6121 16.0626 35.9314C16.0932 36.2645 16.0741 36.6005 16.0331 36.9327C16.0132 37.1032 15.9819 37.2814 15.877 37.4177C15.6607 36.9779 15.4678 36.5257 15.2576 36.0842C15.208 35.9799 15.1503 35.8327 15.0504 35.8454C14.7693 35.8792 14.5655 37.4074 14.1062 38.3597C14.0121 38.5546 13.5857 39.5774 13.3819 39.5306C13.1977 39.4884 13.394 38.5251 13.4195 38.3243C13.5077 37.6295 13.8009 36.5018 13.5704 36.5201C13.276 36.5434 13.1768 37.0995 12.4795 38.0367C12.2341 38.3669 11.7787 39.1401 11.5508 39.0517C11.38 38.986 11.5332 38.5034 11.7154 37.8472C11.8911 37.2141 12.1845 36.2803 12.6388 35.4477C12.965 34.8506 13.3379 34.3662 13.7774 33.7853C14.0374 33.4415 14.2985 33.062 14.7832 33.1882C14.9359 33.228 15.0774 33.301 15.2192 33.3705C15.5861 33.5503 15.9623 33.7105 16.3462 33.8505C16.4457 33.8868 16.6301 33.9473 16.592 34.0882C16.5832 34.1175 16.5697 34.1452 16.552 34.1702H16.5512ZM26.2253 33.8456C25.9944 33.9083 25.7544 33.9371 25.4438 33.9958C25.7966 33.5679 26.0977 33.2009 26.4017 32.8359C26.4363 32.7943 26.4797 32.7485 26.5285 32.7318C27.7835 32.3007 28.5065 31.2789 29.2372 30.2752C29.4526 29.9788 29.6301 29.6568 29.7657 29.3165C29.8623 29.0731 29.9634 28.9744 30.22 29.0938C30.0635 28.5998 29.41 28.1353 28.6894 28.0129C28.1104 27.9133 27.5588 27.9846 27.0771 28.361C27.3438 28.4406 27.5915 28.3225 27.8472 28.3056C28.234 28.28 28.2885 28.3343 28.1942 28.7101C27.9328 29.751 27.344 30.6255 26.7453 31.4889C25.7122 32.9788 24.5085 34.3284 23.2837 35.6609C23.0458 35.9196 22.8732 35.9875 22.5412 35.7823C20.2787 34.3847 18.195 32.7831 16.5455 30.6709C16.2455 30.2869 15.9939 29.8688 15.7353 29.4552C15.6832 29.3714 15.6204 29.2464 15.6557 29.133C15.6937 29.0082 16.0829 28.9704 16.2499 28.9704C16.5825 28.9704 16.4702 28.847 16.429 28.8416C16.1464 28.8042 15.6266 28.771 15.1152 28.8786C14.7279 28.9602 14.3471 29.0864 14.0005 29.2767C13.5427 29.5289 13.1098 29.9036 12.9244 30.4058C13.1269 30.3922 13.2598 30.2664 13.3823 30.1518C13.5475 29.997 13.6442 29.9926 13.8116 30.1717C14.6773 31.1014 15.6272 31.9311 16.767 32.5167C16.9933 32.6331 17.2213 32.7718 17.4647 32.8244C17.953 32.93 18.3129 33.2166 18.6714 33.5333C18.9676 33.795 19.294 34.0225 19.5916 34.3234C19.2176 34.2605 18.7389 34.0981 18.371 34.01C16.4127 33.5403 14.7253 32.8277 13.1299 31.5916C12.5315 31.128 11.967 30.6344 11.5147 30.0193C11.3356 29.7758 11.3408 29.5601 11.4829 29.3123C11.8063 28.7479 12.3322 28.44 12.9067 28.2135C14.6053 27.5443 16.3542 27.495 18.1281 27.8337C18.6871 27.9404 18.6855 27.9434 18.6933 28.5148C18.7076 29.696 19.6059 30.5769 20.7834 30.5648C20.9163 30.5634 21.0495 30.5648 21.2545 30.5648C20.5664 30.852 19.9099 30.8052 19.2042 30.7531C19.9382 31.3221 21.5577 31.0032 22.3521 30.1862C22.9338 30.6713 23.562 31.0327 24.4565 30.9495C23.8195 30.7234 23.2807 30.5045 22.8708 30.0521C23.3424 30.2254 23.816 30.3407 24.3206 30.2408C25.4116 30.025 26.0088 29.303 26.2763 28.2847C26.3617 27.9601 26.5422 27.7734 26.8116 27.6677C28.2061 27.1172 29.6419 27.0092 31.1014 27.3481C31.5831 27.46 31.8353 27.8501 31.8592 28.3988C31.8899 29.0966 31.6315 29.7151 31.2666 30.2788C30.0627 32.1345 28.3399 33.2714 26.2257 33.8456H26.2253ZM26.7978 32.1397C26.9841 31.8583 27.1671 31.5745 27.3596 31.2972C27.3978 31.2423 27.4507 31.1018 27.5471 31.2361C27.6165 31.3328 27.8341 31.4178 27.6735 31.5679C27.4225 31.8027 27.1621 32.0374 26.7982 32.1397H26.7978ZM28.4824 30.0364C28.8887 30.241 28.8967 30.2899 28.6019 30.6301C28.4504 30.8054 28.2937 30.9764 28.1195 31.1716C28.0178 31.0626 27.9241 30.9726 27.8443 30.8731C27.7644 30.7736 27.7145 30.6741 27.8088 30.5449C27.9322 30.3759 28.0612 30.2121 28.153 30.0177C28.2507 29.8125 28.3817 29.9854 28.4828 30.0364H28.4824ZM28.524 28.9949C28.5579 28.8778 28.6011 28.7622 28.6212 28.6428C28.6441 28.5064 28.7058 28.4459 28.825 28.4756C29.1017 28.5035 29.2952 28.6454 29.4731 28.8177C29.5185 28.8617 29.5384 28.9192 29.5175 28.9676C29.3947 29.25 29.3077 29.5493 29.1218 29.8023C29.0553 29.8929 28.9976 29.8819 28.901 29.8338C28.3596 29.5661 28.358 29.5695 28.5244 28.9949H28.524ZM17.3626 32.3847C16.9312 32.2454 16.5664 32.0205 16.2302 31.7572C15.9895 31.5693 16.227 31.4216 16.3183 31.2857C16.4589 31.0773 16.5122 31.3002 16.5678 31.3683C16.8395 31.702 17.0992 32.045 17.363 32.3847H17.3626ZM14.6049 30.4927C14.4771 30.3409 14.3417 30.1942 14.2131 30.0439C13.9476 29.7319 13.9575 29.6769 14.3103 29.4805C14.3685 29.4492 14.4283 29.421 14.4894 29.3959C15.0541 29.1547 15.2657 29.2582 15.4343 29.8465C15.4568 29.9251 15.4343 29.9695 15.3874 30.0216C15.2327 30.1936 15.0806 30.368 14.9277 30.5413C14.8909 30.5829 14.8559 30.6277 14.7022 30.604C14.7106 30.6054 14.657 30.554 14.6053 30.4927H14.6049ZM15.2353 30.768C15.3746 30.6253 15.5 30.4708 15.6354 30.325C15.6636 30.2943 15.7082 30.279 15.7329 30.2653C15.8691 30.2706 16.1328 30.8586 16.0765 30.9933C15.8561 31.5201 15.6523 31.539 15.2566 31.0775C15.1672 30.9716 15.1208 30.8856 15.2357 30.768H15.2353Z" fill="#0C0C0C"/>
<path d="M18.4779 26.2834H18.8233C18.8354 26.2043 18.8568 26.127 18.8872 26.0529C18.9178 25.9856 18.9649 25.9271 19.024 25.8826C19.0831 25.8381 19.1524 25.8091 19.2256 25.7982C19.5395 25.7548 20.2881 25.7884 20.2881 25.7884C20.3026 25.5006 19.9123 25.4379 19.6997 25.4314C19.2325 25.417 18.9505 25.3967 18.6634 25.7232C18.5919 25.8049 18.5404 25.9022 18.5131 26.0074C18.4913 26.0978 18.4795 26.1904 18.4779 26.2834Z" fill="#0C0C0C"/>
<path d="M23.3269 31.1477C23.2423 30.8657 22.7944 30.7178 22.7944 30.7178C22.7944 30.7178 22.6334 31.0235 22.675 31.3407C22.711 31.61 22.9859 31.7278 23.1744 31.6516C23.3629 31.5754 23.3991 31.3885 23.3269 31.1477ZM23.0808 31.4146C23.0002 31.4369 22.9116 31.3935 22.8953 31.2824C22.8686 31.1033 22.9096 31.0008 22.9096 31.0008C22.9096 31.0008 23.049 31.0605 23.1141 31.1899C23.1682 31.2993 23.1626 31.3919 23.0808 31.4146Z" fill="#0C0C0C"/>
<path d="M22.1258 31.4638C22.285 31.2774 22.1835 30.7852 22.1835 30.7852C22.1835 30.7852 21.8849 30.8817 21.6809 31.0542C21.5075 31.2009 21.5077 31.4722 21.6463 31.5717C21.7848 31.6712 21.9883 31.6231 22.1258 31.4638ZM21.8167 31.3657C21.7504 31.316 21.7595 31.2463 21.8312 31.1693C21.9349 31.0578 22.0229 31.0564 22.0229 31.0564C22.0229 31.0564 22.0639 31.1542 21.99 31.2732C21.9403 31.3536 21.881 31.4139 21.8167 31.3657Z" fill="#0C0C0C"/>
</svg>
