<svg width="59" height="25" viewBox="0 0 59 25" fill="none" xmlns="http://www.w3.org/2000/svg">
<path d="M19.3931 5.94922H11.0356V19.0452H12.776V13.2725H19.2893V11.7218H12.776V7.49994H19.3927V5.94922H19.3931Z" fill="#F8F2F2"/>
<path d="M43.9511 12.4913C45.8812 12.3017 47.2079 11.1587 47.2079 9.43578C47.2079 7.62661 45.9845 5.94922 42.7964 5.94922H37.8684V19.0452H42.7964C45.881 19.0452 47.6558 17.8617 47.6558 15.501C47.6558 13.5197 46.381 12.5776 43.9511 12.4913ZM45.3984 9.60796C45.3984 11.0036 44.4334 11.6985 42.7964 11.6985H39.6087V7.49994H42.7964C44.4334 7.49994 45.3984 8.22943 45.3984 9.60796ZM39.6087 17.4944V13.2496H42.8481C44.8643 13.2496 45.8465 13.9332 45.8465 15.3805C45.8465 16.8108 44.8643 17.4944 42.8481 17.4944H39.6087Z" fill="#F8F2F2"/>
<path d="M34.2892 5.76288C32.9697 5.76288 32.4196 6.50511 32.4196 7.22004C32.4196 7.2215 32.42 7.22295 32.42 7.22441C32.42 7.2426 32.4239 7.26008 32.4248 7.27791C32.4512 7.89165 32.9536 8.38198 33.5739 8.38198C34.2084 8.38198 34.7224 7.87017 34.7271 7.23678C34.7271 7.23387 34.7282 7.23096 34.7282 7.22768C34.7282 7.22186 34.7267 7.21676 34.7264 7.21094C34.7201 7.03075 34.6976 6.87787 34.674 6.80724C35.5811 6.9998 36.2138 8.62187 36.2138 10.7663C36.2138 14.5328 34.0038 17.8322 31.5398 17.8322C30 17.8322 29.1478 16.98 29.1478 14.9728C29.1478 13.5707 29.3127 12.6359 30.055 8.37433C30.3848 6.50474 30.4823 5.94889 30.4823 5.94889H28.7096C28.7096 5.94889 28.1581 9.14423 27.9932 10.0514C27.086 15.2201 25.7082 17.9971 23.7315 17.9971C22.412 17.9971 21.6972 16.595 21.6972 14.6704C21.6972 11.9759 23.0538 8.52977 26.298 5.86298L26.1877 5.75342C25.4454 6.02824 24.7581 5.93652 24.0706 5.93652C23.0531 5.93652 22.6683 5.79891 22.0634 5.79891C20.8536 5.79891 20.4136 6.76138 19.9461 8.38343L20.0562 8.43841C20.3859 7.55857 20.936 7.42098 21.6509 7.42098C22.0357 7.42098 22.558 7.50361 23.163 7.50361C23.4655 7.50361 23.8229 7.47594 24.1528 7.42098C21.2385 10.0055 19.8545 13.3508 19.8545 15.6055C19.8545 17.9698 21.174 19.2347 22.7688 19.2347C24.5284 19.2347 26.4253 18.0251 27.7725 13.2136C27.6899 13.7909 27.4701 15.1382 27.4701 15.8531C27.4701 18.1352 28.5974 19.2347 30.5769 19.2347C33.9038 19.2347 37.0655 13.9558 37.0655 10.0794C37.066 8.0449 36.351 5.76288 34.2892 5.76288Z" fill="#F8F2F2"/>
<path fill-rule="evenodd" clip-rule="evenodd" d="M13.0001 0.883009C6.58414 0.883009 1.38301 6.08415 1.38301 12.5001V12.5001C1.38301 18.9161 6.58414 24.1172 13.0001 24.1172H45.6226C52.0385 24.1172 57.2396 18.9161 57.2396 12.5001V12.5001C57.2396 6.08415 52.0385 0.883009 45.6226 0.883009H13.0001ZM0.617188 12.5001C0.617188 5.66119 6.16119 0.117188 13.0001 0.117188H45.6226C52.4614 0.117188 58.0055 5.66119 58.0055 12.5001V12.5001C58.0055 19.339 52.4614 24.883 45.6226 24.883H13.0001C6.16119 24.883 0.617188 19.339 0.617188 12.5001V12.5001Z" fill="#F8F2F2"/>
</svg>
