<svg viewBox="0 0 54 50" fill="none" xmlns="http://www.w3.org/2000/svg">
<path d="M8.84908 18.7114C8.92372 18.943 8.969 19.3127 9.22899 19.408C9.32329 19.4423 9.42479 19.4503 9.52207 19.4749C9.61935 19.4995 9.73231 19.5483 9.82635 19.4998C9.90945 19.456 9.94776 19.3473 10.0005 19.2759C10.5653 18.4855 11.3228 18.0488 12.3041 18.1038C12.6663 18.124 12.7094 18.0088 12.7382 17.6809C12.7384 17.6744 12.739 17.668 12.74 17.6617C13.3167 14.5125 14.6276 14.0044 14.6276 14.0044L14.4975 13.52L13.5734 13.6215C13.5734 13.6215 13.4336 13.6434 13.3936 13.4571C13.3535 13.2707 13.4657 13.2359 13.5493 13.2202L14.4106 13.0665C14.4127 12.9686 14.4204 12.8709 14.4338 12.7739C14.5111 12.3783 14.6557 11.999 14.8612 11.6523C15.1789 11.1137 15.5807 10.6303 16.0246 10.1911C16.547 9.67439 17.1292 9.23105 17.6952 8.76456C18.2456 8.311 18.7874 7.79972 19.0696 7.13021C19.2616 6.67467 19.3184 6.1445 19.133 5.68572C18.936 5.1956 18.4956 4.87912 17.9958 4.74801C17.338 4.57559 16.6722 4.78756 16.2239 5.29535C15.8576 5.71194 15.5665 6.18902 15.3635 6.70528C14.8873 7.90671 14.5447 9.14869 14.1922 10.3874C14.0591 10.8511 13.8976 11.3061 13.7085 11.7498C13.5697 12.0782 13.2682 12.2148 12.9233 12.1541C12.5596 12.0904 12.3976 11.8292 12.3775 11.4662C12.3526 11.0298 12.4422 10.6084 12.5312 10.1867C12.5949 9.88587 12.6469 9.58457 12.5964 9.27706C12.5243 8.83695 12.3148 8.73569 11.9277 8.94966C11.3221 9.28429 11.1066 9.86347 10.9822 10.4899C10.8277 11.26 10.888 12.0417 10.8745 12.8194C10.8745 13.4033 10.8817 13.9887 10.872 14.5712C10.8664 14.9347 10.7691 15.291 10.5892 15.6069C10.3712 15.9928 10.0418 16.0649 9.68628 15.8089C9.45888 15.6457 9.32702 15.4039 9.16381 15.1849C9.01453 14.9847 8.93343 14.5923 8.64134 14.6769C8.37812 14.753 8.34279 15.078 8.31219 15.3551C8.2988 15.4942 8.29249 15.6339 8.29328 15.7736C8.30472 16.4421 8.41171 17.1051 8.57342 17.7528C8.65279 18.0754 8.74708 18.3944 8.84908 18.7114ZM9.38897 17.5084C9.42321 17.3771 9.48752 17.2554 9.57681 17.1532C9.93557 16.7454 10.2881 16.7705 10.872 16.7887C11.138 16.7969 11.6256 16.875 11.6075 17.2348C11.6075 17.2348 10.6718 17.1927 10.2794 17.2472C10.1879 17.2607 10.1013 17.2969 10.0274 17.3525C9.95355 17.4081 9.89477 17.4813 9.85645 17.5654C9.81855 17.6579 9.79183 17.7547 9.77684 17.8535H9.34568C9.34736 17.737 9.36188 17.621 9.38897 17.5077V17.5084Z" fill="white"/>
<path d="M15.0573 13.8307C15.0573 13.8307 15.6947 13.8255 15.9592 13.8307C16.1998 13.8364 16.4108 13.8961 16.6449 13.9402C16.6945 13.9513 16.7457 13.9536 16.7961 13.9471C16.9783 13.916 17.1673 13.6379 17.2863 13.5103C17.4551 13.3345 17.6052 13.1416 17.7341 12.9348C17.8264 12.781 17.9038 12.6069 17.8851 12.4285C17.8665 12.2501 17.7217 12.0802 17.5423 12.0802C17.0163 12.0802 16.4919 12.6773 16.1988 13.0159C16.6016 13.1137 16.6715 13.4677 16.6553 13.5739C16.6593 13.5478 16.3836 13.3075 15.9619 13.3896C15.7082 13.4394 15.0212 13.514 15.0212 13.514L15.0573 13.8307Z" fill="white"/>
<path d="M13.1907 21.4481C13.185 21.5857 13.2579 21.6813 13.4293 21.6969C13.5537 21.6837 13.6358 21.5989 13.6396 21.4603C13.6425 21.3377 13.5649 21.2513 13.4405 21.2401C13.2995 21.227 13.197 21.3011 13.1907 21.4481Z" fill="white"/>
<path d="M5.28622 31.4642C5.25687 31.4008 5.23174 31.315 5.15187 31.3478C5.10037 31.3685 5.06131 31.4473 5.03917 31.508C4.87322 31.9633 4.72444 32.4251 4.5483 32.8764C4.36817 33.3369 4.14525 33.7825 3.86287 34.1893C3.6193 34.5406 3.14137 35.136 2.85724 35.0297C2.71593 34.977 2.66567 35.6114 2.88212 35.5248C3.09857 35.4382 3.61208 35.0874 3.85366 34.826C3.91934 34.7548 4.00567 34.6749 4.09848 34.7016C4.17834 34.7249 4.21541 34.813 4.24452 34.8832C4.46968 35.4243 4.67692 35.9709 4.93318 36.4986C4.95259 36.5384 4.97622 36.5819 5.01852 36.5954C5.06579 36.6103 5.11804 36.5785 5.14292 36.5357C5.16448 36.4908 5.1757 36.4417 5.17576 36.3919C5.26905 35.2133 6.0122 32.6246 6.0122 32.6246C5.67409 32.3164 5.47133 31.8641 5.28622 31.4642Z" fill="white"/>
<path d="M6.68314 27.3122C6.20327 27.1373 5.73305 26.937 5.27447 26.7121C5.09732 26.6253 4.92043 26.5342 4.72961 26.4842C4.12379 26.3255 3.79737 26.7999 3.47245 27.2306C2.92311 27.9568 2.45712 28.5612 2.04934 29.3088C1.48159 30.3495 1.11487 31.5168 0.895186 32.3082C0.667539 33.1293 0.47597 33.7321 0.689435 33.8139C0.974305 33.9234 1.54354 32.9568 1.85031 32.5451C2.72109 31.3738 2.84549 30.6791 3.2137 30.6493C3.50181 30.6264 3.13533 32.0361 3.02512 32.9046C2.99327 33.1556 2.74796 34.36 2.97809 34.4125C3.23286 34.471 3.76578 33.1934 3.88346 32.9489C4.45743 31.7584 4.71219 29.8482 5.06349 29.8059C5.18789 29.7907 5.26053 29.9748 5.32248 30.1044C5.58546 30.6575 5.82629 31.2227 6.09673 31.7726C6.22785 31.6022 6.26566 31.3795 6.29179 31.1663C6.34304 30.751 6.36642 30.3311 6.32861 29.9146C6.29203 29.5165 6.19899 29.1247 6.08703 28.7408C6.04921 28.6112 5.74195 27.9227 5.95815 27.8414C6.04871 27.8073 6.18456 27.9342 6.23009 27.9976C6.36294 28.183 6.53934 28.2977 6.69707 28.0673C6.77237 27.957 6.84784 27.8467 6.92348 27.7364C6.92895 27.7287 6.93417 27.721 6.9394 27.713C6.96137 27.6818 6.97818 27.6473 6.98916 27.6108C7.03792 27.4331 6.80779 27.3575 6.68314 27.3122Z" fill="white"/>
<path d="M15.0095 18.5826C15.0683 18.5445 15.1163 18.492 15.149 18.43C15.1816 18.368 15.1979 18.2987 15.1961 18.2286C15.1925 18.1321 15.1531 18.0403 15.0855 17.9713C15.0179 17.9023 14.927 17.861 14.8306 17.8554C14.6067 17.838 14.4231 17.9579 14.4017 18.2025C14.3738 18.5219 14.7338 18.757 15.0095 18.5826Z" fill="white"/>
<path d="M20.4905 27.3087C19.4976 27.6854 18.7885 27.8991 17.6936 28.082C17.2627 28.1539 16.222 29.2869 15.6915 29.8601C15.5054 30.0611 15.3144 30.2868 15.0476 30.3487C14.6901 30.4321 14.3463 30.194 14.0465 29.9823C12.4072 28.8259 9.48907 28.1163 8.50235 27.9409C8.07294 27.865 7.56365 27.8357 7.21012 28.0902C6.56599 28.5549 6.71701 29.5377 6.93644 30.301C7.09343 29.9066 7.37432 29.5143 7.69552 29.2476C6.62769 32.156 5.41954 35.3517 5.80468 38.4258C5.92037 39.3481 6.18309 40.2814 6.76751 41.0039C7.43055 41.8234 8.43443 42.2866 9.4326 42.6257C13.2066 43.9083 17.4453 43.7702 21.1272 42.2426C22.7118 41.5855 24.3068 40.5441 24.8327 38.9112C25.1141 38.037 24.9708 37.0995 24.8688 36.1869C24.7158 34.8186 23.9448 33.4592 23.0994 32.0647C21.5613 29.527 19.9265 27.8008 20.2017 27.6722C20.5288 27.5192 21.7753 29.0192 21.7753 29.0192L26.7843 29.0766V26.0043L22.9623 26.0804C22.9623 26.0804 21.3183 26.9962 20.4905 27.3087Z" fill="white"/>
<path d="M23.6592 25.5139L26.7855 25.5343V25.1949L24.0169 25.2584L23.6592 25.5139Z" fill="white"/>
<path d="M13.5376 23.9609C13.448 24.0569 13.4366 24.1442 13.5194 24.2064C13.6023 24.2686 13.6739 24.1913 13.7361 24.0908C13.8284 23.9415 13.7772 23.8198 13.7772 23.8198C13.7772 23.8198 13.6672 23.8211 13.5376 23.9609Z" fill="white"/>
<path d="M12.687 18.5372C11.76 18.2409 10.7399 18.6792 10.2552 19.5821C9.7385 20.5452 9.98157 21.5391 10.9126 22.2805C11.7194 22.9229 12.8096 22.9772 13.4677 22.4084C12.9261 22.1007 12.7407 21.7384 12.928 21.3535C13.1452 20.9077 13.5284 20.8296 14.2066 21.1117C14.3554 19.8448 13.7829 18.8875 12.687 18.5372Z" fill="white"/>
<path d="M17.1623 14.7899C16.147 13.8584 14.966 14.0219 14.1768 15.1653C13.6543 15.9239 13.3695 16.772 13.2237 17.6689C13.1162 18.3297 13.1326 18.3325 13.8245 18.5855C13.9987 17.6679 14.5731 17.1674 15.3173 17.2868C15.9761 17.392 16.4592 18.0332 16.3871 18.7062C16.3035 19.4714 15.6551 19.8907 14.6348 19.7961C14.8403 20.39 14.8493 20.9495 14.6463 21.5053C14.5806 21.6852 14.6127 21.8198 14.7747 21.9373C15.2919 22.3122 15.8562 22.508 16.4956 22.3766C17.3813 22.1947 17.9386 21.6277 18.3187 20.8296C18.8029 19.8158 19.093 18.7781 18.8412 17.6528C18.5869 16.522 18.0105 15.5681 17.1623 14.7899Z" fill="white"/>
<path d="M6.3456 23.7392C6.41601 23.571 6.08636 22.8358 5.91618 22.8291C5.88533 22.8475 5.8296 22.8667 5.79427 22.905C5.62509 23.0874 5.46711 23.2804 5.2942 23.4588C5.15164 23.6058 5.20861 23.7133 5.32082 23.8444C5.81542 24.4216 6.07019 24.3978 6.3456 23.7392Z" fill="white"/>
<path d="M21.4404 22.5212C21.3257 22.7642 21.1644 22.969 21.0102 23.1802C20.8923 23.3417 20.9575 23.4688 21.0545 23.5905C21.1515 23.7121 21.2714 23.8271 21.3986 23.9637C21.6163 23.7196 21.8121 23.5059 22.0016 23.2867C22.3691 22.8615 22.3592 22.8003 21.8524 22.5445C21.725 22.4806 21.5613 22.2644 21.4404 22.5212Z" fill="white"/>
<path d="M20.6821 24.0439C20.5616 23.876 20.4955 24.0517 20.4477 24.1203C20.2071 24.4669 19.9785 24.8217 19.7456 25.1735C20.2006 25.0466 20.5258 24.7523 20.8403 24.4587C21.0411 24.2711 20.7691 24.1651 20.6821 24.0439Z" fill="white"/>
<path d="M4.91032 23.1754C5.10139 22.9587 5.29147 22.7408 5.48479 22.5258C5.54325 22.4606 5.57161 22.4052 5.5435 22.3069C5.33302 21.5715 5.0683 21.4421 4.36247 21.7436C4.28604 21.7749 4.2113 21.8102 4.13856 21.8494C3.69769 22.0952 3.68525 22.1636 4.01715 22.5537C4.17812 22.7428 4.34705 22.9249 4.50677 23.1147C4.57146 23.1914 4.63839 23.2555 4.62918 23.2538C4.8205 23.2834 4.86429 23.2274 4.91032 23.1754Z" fill="white"/>
<path d="M22.3739 22.291C22.4945 22.3507 22.5667 22.3656 22.6498 22.2517C22.8821 21.9357 22.9909 21.5613 23.1444 21.2085C23.1692 21.1478 23.1444 21.0759 23.0889 21.0209C22.8665 20.8054 22.6246 20.628 22.2788 20.5932C22.1295 20.5561 22.0527 20.6318 22.0241 20.8024C21.9992 20.9517 21.9452 21.096 21.9026 21.2423C21.6951 21.9616 21.6974 21.9564 22.3739 22.291Z" fill="white"/>
<path d="M14.8851 23.7499C14.8851 23.7499 14.8339 23.8768 14.8672 24.1019C14.8876 24.2408 14.9983 24.295 15.0991 24.2671C15.1999 24.2393 15.2083 24.1231 15.1407 23.9862C15.0608 23.8235 14.8851 23.7499 14.8851 23.7499Z" fill="white"/>
<path d="M6.64771 24.106C6.53351 24.2759 6.23669 24.4605 6.53749 24.6954C6.95895 25.0245 7.41374 25.3069 7.95288 25.4798C7.62323 25.0551 7.29855 24.6265 6.95944 24.2095C6.89028 24.1241 6.8241 23.8455 6.64771 24.106Z" fill="white"/>
<path d="M26.0687 20.4974C26.0388 19.8115 25.7236 19.3239 25.1215 19.184C23.2974 18.7611 21.5028 18.8954 19.7598 19.5836C19.4231 19.7165 19.1975 19.9498 19.0907 20.3549C18.7564 21.6277 18.01 22.5303 16.6463 22.8C16.0156 22.9244 15.4238 22.7809 14.8344 22.5642C15.3466 23.1297 16.0214 23.4034 16.8163 23.686C15.6982 23.79 14.913 23.3377 14.186 22.7319C13.1931 23.7532 11.1689 24.1517 10.2516 23.4404C11.1345 23.5056 11.9551 23.5648 12.8141 23.2051C12.5579 23.2051 12.3912 23.2036 12.2253 23.2051C10.7526 23.2197 9.62983 22.1186 9.61291 20.6425C9.60445 19.9282 9.6052 19.9245 8.90658 19.7911C6.68932 19.3682 4.50292 19.4294 2.38045 20.2658C1.66243 20.5489 1.00511 20.9338 0.600821 21.6394C0.423182 21.9491 0.416961 22.2188 0.640628 22.5231C1.20589 23.2924 1.91147 23.9094 2.65935 24.4886C4.65344 26.0339 6.76247 26.9245 9.21011 27.5117C9.66988 27.6219 10.2682 27.8249 10.7357 27.9035C10.3625 27.5274 9.95575 27.243 9.58554 26.9158C9.13771 26.52 8.68764 26.162 8.07735 26.0299C7.77307 25.9639 7.4882 25.7905 7.20657 25.645C5.78197 24.913 4.59422 23.8758 3.51271 22.7139C3.30348 22.49 3.18256 22.4952 2.97606 22.6891C2.8238 22.8314 2.65761 22.9896 2.40383 23.0065C2.63546 22.3788 3.17659 21.9103 3.74882 21.5951C4.18247 21.3563 4.65841 21.1985 5.14207 21.0975C5.78222 20.9627 6.43207 21.0042 6.78411 21.051C6.83611 21.0577 6.97643 21.212 6.5602 21.212C6.35121 21.212 5.86357 21.2592 5.8173 21.4155C5.77401 21.557 5.85238 21.714 5.91682 21.818C6.24025 22.3353 6.55472 22.8577 6.92941 23.3377C8.99117 25.9781 11.5958 27.9802 14.4234 29.7272C14.8383 29.9837 15.054 29.8989 15.3514 29.5754C16.8822 27.91 18.3867 26.2227 19.6779 24.3605C20.4263 23.2809 21.1622 22.1877 21.4889 20.8866C21.6068 20.4168 21.5386 20.3489 21.0552 20.381C20.7355 20.4021 20.426 20.5492 20.0926 20.4502C20.6945 19.9797 21.3839 19.8921 22.1079 20.015C23.0085 20.168 23.8246 20.7487 24.0209 21.3662C23.7002 21.2169 23.573 21.3413 23.4531 21.6446C23.2836 22.07 23.0617 22.4726 22.7926 22.8431C21.8792 24.0985 20.9764 25.3753 19.407 25.9139C19.346 25.9348 19.2918 25.9921 19.2485 26.0443C18.8686 26.5003 18.4921 26.9591 18.0513 27.494C18.4394 27.4206 18.7394 27.3846 19.028 27.3062C21.6705 26.5892 23.8238 25.1666 25.3258 22.8478C25.7841 22.1432 26.107 21.3697 26.0687 20.4974ZM13.9059 24.3289C13.7347 24.5279 13.4799 24.5861 13.3065 24.463C13.1331 24.3398 13.1324 24.0002 13.3498 23.8161C13.6051 23.6004 13.978 23.4797 13.978 23.4797C13.978 23.4797 14.1061 24.0955 13.9059 24.3286V24.3289ZM15.2175 24.564C14.9819 24.659 14.6383 24.5117 14.5933 24.1751C14.5405 23.7785 14.7426 23.3964 14.7426 23.3964C14.7426 23.3964 15.3023 23.5812 15.4081 23.9338C15.4974 24.2346 15.4534 24.4682 15.2175 24.5637V24.564Z" fill="white"/>
<path d="M26.7854 25.1952V24.7911L24.5361 24.7822C25.277 23.9706 26.1647 23.0608 26.52 22.0205C26.8752 20.9803 26.719 19.6819 25.8572 19.0014C25.3243 18.58 24.6172 18.4563 23.9392 18.4115C22.3931 18.3104 20.8435 18.5448 19.3965 19.0987C19.4609 17.2954 18.712 15.4785 17.3957 14.2442C17.8485 13.8658 18.3214 13.4585 18.51 12.8995C18.6986 12.3405 18.466 11.5953 17.8943 11.4493C17.0416 11.2313 15.9989 12.4925 15.633 12.9L15.0523 12.9721C15.2088 11.8556 16.0363 10.9569 16.9058 10.2384C17.7753 9.51987 18.7454 8.88495 19.3833 7.95546C20.0212 7.02596 20.2312 5.6745 19.5062 4.81094C18.6951 3.84487 17.0715 3.97101 16.0952 4.76989C15.119 5.56877 14.6537 6.82617 14.3268 8.04477C13.9999 9.26337 13.7546 10.5367 13.0701 11.5958C12.6007 10.6579 13.6996 9.34397 13.003 8.56052C12.692 8.21072 12.1267 8.17912 11.7092 8.39035C11.2917 8.60158 11.0026 9.00461 10.7974 9.42532C10.0057 11.0482 10.268 12.956 10.3421 14.7602C10.3473 14.8913 10.3483 15.0339 10.2695 15.1384C10.0779 15.3924 9.65593 15.1742 9.51486 14.8896C9.37379 14.605 9.32876 14.2467 9.07126 14.0601C8.76026 13.8345 8.28955 14.0086 8.07334 14.3263C7.85714 14.644 7.83176 15.0508 7.83102 15.4352C7.82839 16.7101 8.01897 17.978 8.39628 19.1957C6.21236 18.986 3.92594 18.9071 1.91319 19.7804C0.885172 20.2265 -0.146081 21.1515 0.0171285 22.2601C0.106695 22.868 0.539598 23.3628 0.975735 23.7947C1.83081 24.6401 2.77388 25.3916 3.78885 26.0363C3.75153 26.0115 3.12855 26.8308 3.06934 26.9089C2.83713 27.2152 2.61736 27.5308 2.41003 27.8555C1.5809 29.1562 0.966168 30.5816 0.589356 32.0773C0.454509 32.6135 -0.111997 34.0724 0.560246 34.4125C0.936921 34.6033 1.51213 33.7746 1.76466 33.5378C2.09207 33.231 2.45681 32.6919 2.66032 32.2938C2.62599 32.9305 2.38466 33.5315 2.41153 34.2222C2.42645 34.6203 2.45457 34.7581 2.44064 34.9599C2.43417 35.0537 2.42844 35.1462 2.42372 35.237C2.41401 35.4191 2.3344 35.703 2.4486 35.8456C2.6546 36.1051 3.39576 35.8055 3.71894 35.4535C4.88628 36.9711 5.25301 38.9378 6.01208 40.6966C7.00875 43.0056 9.8786 43.4629 9.8786 43.4629C9.8786 43.4629 11.1042 46.384 11.5119 47.474C9.40221 47.5327 7.32042 47.9718 5.36671 48.7702L9.12351 48.2062C9.13097 48.2084 9.13819 48.2107 9.14565 48.2134C7.94998 48.5728 6.84413 49.1817 5.90112 50C8.26143 48.8749 11.3694 47.8604 13.3465 47.8509C13.5759 47.8509 13.7232 47.8571 13.7695 47.7392C13.8026 47.6546 13.7613 47.5738 13.5682 47.5004C13.2119 47.3653 12.0458 47.4257 12.0458 47.4257L10.7108 43.6953C13.3978 43.9799 15.6544 44.3126 18.8986 43.5689C18.9855 44.2611 18.5317 46.8672 18.5317 46.8672C18.5317 46.8672 17.1384 47.0911 16.6742 47.2257C16.4575 47.2889 16.2666 47.3454 16.2654 47.5302C16.2654 47.722 16.3898 47.7541 16.6157 47.7238C17.0598 47.6626 17.7661 47.5153 18.5563 47.4961C20.3974 47.4516 22.3527 48.2326 24.2144 48.7615C23.0042 47.9308 21.7297 47.2687 20.2685 47.1277C21.919 47.0821 23.4255 47.3516 25.0511 47.6424C23.2253 46.6819 21.1247 46.3785 19.1017 46.7831C19.1265 46.7799 19.6657 43.4219 19.6657 43.4219C19.6657 43.4219 23.6237 42.4735 24.9861 39.8288C25.0498 39.7044 25.1128 39.58 25.1685 39.4536C25.8995 37.7782 25.7278 35.7856 24.9695 34.1219C24.2251 32.4866 23.0567 30.8047 22.0994 29.5346L26.7834 29.5568V29.0774L21.7767 29.0199C21.7767 29.0199 20.5302 27.5199 20.2031 27.6729C19.9279 27.8016 21.5627 29.5282 23.1008 32.0654C23.9467 33.4599 24.7179 34.8183 24.8702 36.1877C24.9722 37.1002 25.1155 38.0377 24.8341 38.912C24.3082 40.5448 22.7132 41.5863 21.1286 42.2433C17.4464 43.7702 13.208 43.909 9.43524 42.6265C8.43708 42.2874 7.43319 41.8241 6.77016 41.0046C6.18574 40.2831 5.92426 39.3489 5.80732 38.4266C5.42119 35.3525 6.62835 32.1569 7.69816 29.2483C7.37697 29.515 7.09608 29.9073 6.93909 30.3017C6.7194 29.5384 6.56839 28.5556 7.21276 28.0909C7.5663 27.8356 8.07558 27.865 8.505 27.9416C9.49172 28.1158 12.4111 28.8266 14.0491 29.983C14.3477 30.1947 14.6928 30.4328 15.0503 30.3494C15.317 30.2875 15.5081 30.0618 15.6942 29.8608C16.2246 29.2886 17.2653 28.1546 17.6962 28.0827C18.7909 27.8998 19.5002 27.6861 20.4932 27.3094C21.3209 26.9957 22.9662 26.0811 22.9662 26.0811L26.7882 26.005V25.535L23.6616 25.5149L24.0196 25.2591L26.7854 25.1952ZM18.8409 17.6527C19.0937 18.778 18.8036 19.8157 18.3185 20.8296C17.9373 21.6277 17.381 22.1947 16.4953 22.3766C15.8559 22.5079 15.2916 22.3121 14.7744 21.9372C14.6124 21.8198 14.5803 21.6852 14.646 21.5053C14.849 20.9495 14.8401 20.39 14.6346 19.7961C15.6546 19.8906 16.3032 19.4714 16.3868 18.7061C16.4602 18.0344 15.977 17.392 15.317 17.2867C14.5706 17.1676 13.9964 17.6679 13.8242 18.5854C13.1323 18.3324 13.1159 18.3297 13.2234 17.6689C13.3692 16.772 13.6536 15.9239 14.1765 15.1653C14.965 14.0208 16.146 13.8583 17.1621 14.7898C18.0104 15.5681 18.5869 16.522 18.8409 17.6527ZM14.4019 18.2016C14.4233 17.957 14.6057 17.8371 14.8309 17.8545C14.9273 17.8601 15.0182 17.9014 15.0858 17.9704C15.1534 18.0394 15.1928 18.1312 15.1963 18.2277C15.1981 18.2977 15.1819 18.3671 15.1492 18.429C15.1166 18.491 15.0685 18.5436 15.0097 18.5817C14.7338 18.7571 14.3738 18.522 14.4017 18.2016H14.4019ZM12.9283 21.3533C12.741 21.7382 12.9263 22.0997 13.468 22.4082C12.8099 22.9772 11.7197 22.9227 10.9128 22.2803C9.98085 21.5389 9.73878 20.545 10.2555 19.5819C10.7402 18.6788 11.7602 18.2404 12.6872 18.5369C13.7819 18.8877 14.3557 19.8451 14.2069 21.1117C13.5284 20.8293 13.1453 20.9074 12.9281 21.3533H12.9283ZM13.6399 21.4603C13.6361 21.5989 13.5538 21.6842 13.4296 21.6969C13.2582 21.6802 13.1853 21.5847 13.191 21.4481C13.1973 21.302 13.2998 21.2279 13.4418 21.2411C13.565 21.2513 13.6426 21.3376 13.6396 21.4603H13.6399ZM15.9616 13.3899C16.3846 13.3078 16.6582 13.5481 16.655 13.5742C16.6714 13.468 16.6013 13.114 16.1985 13.0162C16.4918 12.6783 17.0163 12.0802 17.542 12.0805C17.7213 12.0805 17.8654 12.2509 17.8848 12.4288C17.9042 12.6067 17.8261 12.7813 17.7338 12.9351C17.6049 13.1419 17.4548 13.3348 17.286 13.5105C17.167 13.6382 16.978 13.9163 16.7958 13.9474C16.7454 13.9539 16.6942 13.9516 16.6446 13.9405C16.4104 13.8964 16.1995 13.8367 15.9589 13.831C15.6944 13.825 15.057 13.831 15.057 13.831L15.0204 13.5143C15.0204 13.5143 15.7076 13.4391 15.9614 13.3899H15.9616ZM8.29203 15.7738C8.29125 15.6341 8.29756 15.4944 8.31094 15.3553C8.3408 15.0782 8.37687 14.7533 8.6401 14.6771C8.93193 14.5925 9.01329 14.9849 9.16257 15.1852C9.32528 15.4041 9.45714 15.6459 9.68503 15.8092C10.0413 16.0652 10.37 15.993 10.5879 15.6071C10.7679 15.2912 10.8652 14.935 10.8708 14.5714C10.8805 13.9877 10.8733 13.4036 10.8733 12.8196C10.8867 12.0419 10.8265 11.2602 10.981 10.4902C11.1054 9.86371 11.3219 9.28451 11.9264 8.94988C12.3135 8.73592 12.5235 8.83718 12.5952 9.2773C12.6449 9.58481 12.5937 9.8861 12.53 10.1869C12.4409 10.6086 12.3521 11.0301 12.3762 11.4664C12.3964 11.8294 12.5584 12.0907 12.9221 12.1544C13.2669 12.2151 13.569 12.0785 13.7073 11.7501C13.8963 11.3063 14.0578 10.8513 14.191 10.3877C14.5435 9.14767 14.8861 7.90569 15.3623 6.70551C15.5652 6.18924 15.8563 5.71217 16.2226 5.29559C16.6704 4.7868 17.3367 4.57408 17.9945 4.74824C18.4944 4.87936 18.9347 5.19607 19.1318 5.68595C19.3161 6.14472 19.2604 6.67491 19.0683 7.13045C18.7862 7.79996 18.2443 8.31123 17.694 8.76478C17.128 9.23127 16.5458 9.67462 16.0233 10.1914C15.5795 10.6305 15.1774 11.1139 14.86 11.6525C14.6545 11.9992 14.5099 12.3786 14.4325 12.7741C14.4192 12.8711 14.4114 12.9688 14.4094 13.0667L13.5481 13.2204C13.4645 13.2361 13.3528 13.2719 13.3923 13.4573C13.4319 13.6426 13.5722 13.6218 13.5722 13.6218L14.4962 13.5202L14.6263 14.0046C14.6263 14.0046 13.3154 14.5117 12.7387 17.6619C12.7378 17.6683 12.7372 17.6747 12.737 17.6811C12.7081 18.009 12.6651 18.1242 12.3028 18.104C11.3216 18.049 10.564 18.4857 9.99926 19.2761C9.94751 19.3485 9.9092 19.4572 9.82511 19.5C9.73106 19.5498 9.61512 19.5 9.52083 19.4751C9.42654 19.4503 9.32179 19.4425 9.22775 19.4082C8.96776 19.3134 8.92248 18.9437 8.84784 18.7116C8.74583 18.3954 8.65154 18.0764 8.57093 17.754C8.41046 17.1054 8.30348 16.4423 8.29203 15.7738ZM5.17638 36.3924C5.17633 36.4422 5.1651 36.4914 5.14354 36.5362C5.11866 36.579 5.06691 36.6109 5.01914 36.5959C4.97685 36.5825 4.95321 36.539 4.93381 36.4992C4.67755 35.9715 4.4703 35.4249 4.24514 34.8837C4.21603 34.8136 4.17896 34.7255 4.0991 34.7021C4.0063 34.6747 3.91997 34.7546 3.85429 34.8265C3.61271 35.088 3.10218 35.4383 2.88274 35.5254C2.66331 35.6124 2.7153 34.978 2.85786 35.0303C3.14323 35.1365 3.61992 34.5411 3.86349 34.1898C4.14587 33.7831 4.36879 33.3375 4.54892 32.877C4.72507 32.4259 4.87385 31.9641 5.03979 31.5086C5.06194 31.4476 5.101 31.369 5.1525 31.3484C5.23236 31.316 5.25749 31.4014 5.28684 31.4648C5.47195 31.8646 5.67472 32.3169 6.01358 32.6257C6.01283 32.6252 5.26968 35.2139 5.17638 36.3924ZM6.99034 27.61C6.97936 27.6465 6.96256 27.681 6.94058 27.7122C6.93536 27.7202 6.93013 27.7279 6.92466 27.7356C6.84936 27.8461 6.77389 27.9564 6.69825 28.0665C6.54052 28.2969 6.36413 28.1822 6.23127 27.9969C6.18574 27.9334 6.0499 27.8065 5.95934 27.8406C5.74313 27.922 6.0504 28.6104 6.08821 28.74C6.20017 29.1239 6.29322 29.515 6.32979 29.9138C6.36811 30.3303 6.34422 30.7503 6.29297 31.1655C6.26809 31.3787 6.22903 31.6014 6.09792 31.7718C5.82748 31.222 5.58664 30.6567 5.32367 30.1036C5.26172 29.9733 5.18957 29.7892 5.06467 29.8051C4.71337 29.8474 4.45861 31.7576 3.88464 32.9481C3.76696 33.1917 3.23404 34.4702 2.97927 34.4118C2.74914 34.3593 2.99445 33.1549 3.0263 32.9038C3.13651 32.0353 3.50299 30.6256 3.21489 30.6485C2.84692 30.6776 2.72302 31.373 1.85149 32.5443C1.54473 32.9571 0.975484 33.9236 0.690614 33.8132C0.477148 33.7313 0.66872 33.1277 0.896367 32.3075C1.11605 31.5161 1.48278 30.3487 2.05053 29.308C2.4583 28.5604 2.92429 27.9561 3.47363 27.2298C3.79856 26.8002 4.12497 26.3257 4.73079 26.4834C4.92161 26.5332 5.09851 26.6245 5.27565 26.7113C5.73424 26.9362 6.20446 27.1365 6.68432 27.3114C6.80773 27.3574 7.03786 27.4331 6.99034 27.6095V27.61ZM19.0303 27.3065C18.7417 27.3848 18.4416 27.4209 18.0535 27.4943C18.4944 26.9594 18.8708 26.5006 19.2507 26.0446C19.294 25.9923 19.3482 25.9351 19.4092 25.9142C20.9778 25.3755 21.8814 24.098 22.7948 22.8433C23.0639 22.4729 23.2858 22.0703 23.4553 21.6449C23.576 21.3406 23.7024 21.2172 24.0231 21.3665C23.8278 20.749 23.0107 20.1683 22.1101 20.0153C21.3863 19.8924 20.6969 19.9799 20.0948 20.4504C20.4282 20.5499 20.7377 20.4024 21.0574 20.3813C21.5408 20.3492 21.609 20.4171 21.4911 20.8868C21.1644 22.188 20.4285 23.2812 19.6801 24.3607C18.3889 26.2229 16.8844 27.9103 15.3536 29.5757C15.0563 29.8991 14.8406 29.984 14.4256 29.7275C11.598 27.9804 8.99338 25.9784 6.93162 23.3379C6.55694 22.858 6.24222 22.3355 5.91903 21.8183C5.85385 21.7135 5.77548 21.5573 5.81951 21.4157C5.86703 21.2595 6.35343 21.2122 6.56241 21.2122C6.9779 21.2122 6.83758 21.058 6.78633 21.0512C6.43329 21.0045 5.78344 20.9629 5.14429 21.0978C4.66013 21.1995 4.18419 21.3573 3.75104 21.5954C3.17881 21.9106 2.63768 22.3791 2.40605 23.0068C2.65908 22.9899 2.82527 22.8326 2.97828 22.6893C3.18478 22.4958 3.30569 22.4903 3.51493 22.7142C4.59694 23.8761 5.78418 24.9133 7.20878 25.6453C7.49166 25.7908 7.77653 25.9642 8.07956 26.0301C8.68986 26.1622 9.13968 26.5203 9.58775 26.9161C9.95796 27.2432 10.366 27.5276 10.7379 27.9038C10.2704 27.8252 9.6721 27.6222 9.21232 27.5119C6.76468 26.9248 4.65565 26.0341 2.66156 24.4889C1.91369 23.9094 1.20811 23.2924 0.642847 22.5234C0.418932 22.2191 0.425398 21.9494 0.603038 21.6397C1.00733 20.9341 1.66464 20.5492 2.38267 20.2661C4.50563 19.4296 6.69154 19.3679 8.9088 19.7914C9.60741 19.9247 9.60542 19.9284 9.61512 20.6427C9.63304 22.1193 10.7558 23.2205 12.2275 23.2053C12.3937 23.2036 12.5601 23.2053 12.8164 23.2053C11.9563 23.5643 11.1358 23.5059 10.2538 23.4407C11.1711 24.152 13.1953 23.7534 14.1882 22.7321C14.9152 23.3384 15.7004 23.7902 16.8185 23.6862C16.0236 23.4036 15.3488 23.1299 14.8366 22.5644C15.426 22.7811 16.0179 22.9252 16.6485 22.8003C18.0122 22.5306 18.7586 21.628 19.093 20.3551C19.1997 19.9493 19.4253 19.716 19.762 19.5839C21.503 18.8954 23.2973 18.7611 25.1215 19.184C25.7236 19.3239 26.0388 19.8115 26.0687 20.4974C26.107 21.3697 25.784 22.1432 25.328 22.8475C23.826 25.1671 21.6727 26.5889 19.0303 27.306V27.3065ZM19.7458 25.174C19.9787 24.8222 20.2073 24.4675 20.4479 24.1209C20.4957 24.0522 20.5618 23.8766 20.6823 24.0445C20.7691 24.1657 21.041 24.2716 20.8402 24.4592C20.526 24.7523 20.2008 25.0466 19.7458 25.1735V25.174ZM21.8513 22.5443C22.3591 22.8 22.3691 22.8612 22.0006 23.2864C21.811 23.5056 21.6152 23.7193 21.3975 23.9634C21.2704 23.8271 21.1532 23.7146 21.0535 23.5902C20.9537 23.4658 20.8912 23.3414 21.0092 23.1799C21.1634 22.9687 21.3246 22.764 21.4393 22.5209C21.5612 22.2644 21.7249 22.4806 21.8513 22.5443ZM21.9033 21.2423C21.9459 21.096 21.9996 20.9515 22.0247 20.8025C22.0534 20.6318 22.1305 20.5562 22.2795 20.5932C22.6253 20.6281 22.8672 20.8054 23.0896 21.0209C23.1463 21.0759 23.1712 21.1478 23.1451 21.2085C22.9916 21.5613 22.8828 21.9357 22.6505 22.2517C22.5674 22.3649 22.4952 22.3512 22.3746 22.291C21.6973 21.9564 21.6951 21.9616 21.9033 21.2423ZM7.95293 25.4798C7.41379 25.3069 6.95899 25.0245 6.53753 24.6953C6.23674 24.4605 6.53356 24.2759 6.64775 24.106C6.8234 23.8455 6.89032 24.1241 6.95949 24.2095C7.2986 24.6264 7.62327 25.0556 7.95293 25.4798ZM4.50613 23.115C4.3464 22.9252 4.17747 22.7431 4.0165 22.554C3.68461 22.1639 3.69705 22.0954 4.13791 21.8496C4.21066 21.8105 4.2854 21.7752 4.36183 21.7439C5.06766 21.4424 5.33213 21.5717 5.54285 22.3072C5.57097 22.4054 5.54285 22.4609 5.48414 22.5261C5.29083 22.7411 5.10075 22.959 4.90967 23.1757C4.86365 23.2277 4.81986 23.2837 4.62779 23.2541C4.63774 23.2556 4.57081 23.1914 4.50613 23.115ZM5.29406 23.4591C5.46822 23.2807 5.62496 23.0876 5.79414 22.9053C5.82947 22.867 5.8852 22.8478 5.91605 22.8294C6.08622 22.8361 6.41587 23.5713 6.34547 23.7395C6.07005 24.398 5.81528 24.4219 5.32068 23.8447C5.20847 23.7134 5.1515 23.6059 5.29406 23.4588V23.4591Z" fill="black"/>
<path d="M9.8572 17.5646C9.89552 17.4805 9.9543 17.4072 10.0282 17.3517C10.1021 17.2961 10.1887 17.2599 10.2801 17.2464C10.6725 17.1919 11.6082 17.2339 11.6082 17.2339C11.6264 16.8742 11.1387 16.7961 10.8728 16.7879C10.2889 16.7697 9.93632 16.7446 9.57755 17.1523C9.48826 17.2546 9.42396 17.3762 9.38971 17.5076C9.36293 17.6207 9.34866 17.7365 9.34717 17.8527H9.77833C9.79308 17.7539 9.81955 17.6572 9.8572 17.5646Z" fill="black"/>
<path d="M14.7415 23.3961C14.7415 23.3961 14.5405 23.7783 14.5923 24.1749C14.6373 24.5115 14.9809 24.6588 15.2165 24.5637C15.4521 24.4687 15.4964 24.2346 15.4061 23.9335C15.3013 23.581 14.7415 23.3961 14.7415 23.3961ZM15.0995 24.2669C15 24.2948 14.8881 24.2405 14.8677 24.1017C14.8343 23.8765 14.8856 23.7497 14.8856 23.7497C14.8856 23.7497 15.0597 23.8243 15.1411 23.986C15.2085 24.1231 15.2021 24.2388 15.0995 24.2672V24.2669Z" fill="black"/>
<path d="M13.3497 23.8166C13.133 23.9999 13.1332 24.3391 13.3064 24.4635C13.4796 24.5879 13.7346 24.5286 13.9057 24.3294C14.1048 24.0962 13.9779 23.481 13.9779 23.481C13.9779 23.481 13.6049 23.6009 13.3497 23.8166ZM13.7361 24.0903C13.6739 24.1898 13.5997 24.2662 13.5194 24.2059C13.439 24.1457 13.448 24.0567 13.5375 23.9604C13.6671 23.8211 13.7771 23.8193 13.7771 23.8193C13.7771 23.8193 13.8284 23.9415 13.7361 24.0903Z" fill="black"/>
<path d="M38.6005 21.9104C38.7304 21.8091 38.8777 21.7277 38.8018 21.51C38.5998 20.9314 38.5903 20.3439 38.8033 19.7068C37.786 19.9287 37.2301 19.3674 37.0759 18.7875C36.8958 18.1103 37.3555 17.3883 38.0499 17.2333C38.7339 17.0805 39.434 17.5619 39.5571 18.264C39.5725 18.3516 39.52 18.4715 39.637 18.5225C39.7659 18.5785 40.2779 18.1493 40.2605 17.9916C40.1333 16.8417 39.8081 15.7591 39.0662 14.8491C38.3761 14.0032 37.4406 13.8979 36.5534 14.5147C35.6662 15.1314 35.0798 16.0164 34.7437 16.9899C34.2018 18.5596 34.5335 20.075 35.5043 21.407C36.2703 22.4587 37.6528 22.6498 38.6005 21.9104Z" fill="white"/>
<path d="M39.7435 23.7985C39.7435 23.7985 39.6923 23.9251 39.7256 24.1505C39.746 24.2893 39.857 24.3433 39.9578 24.3154C40.0585 24.2876 40.0667 24.1717 39.9991 24.0348C39.9187 23.8721 39.7435 23.7985 39.7435 23.7985Z" fill="white"/>
<path d="M38.3962 24.009C38.3067 24.105 38.2952 24.1921 38.3781 24.2543C38.4609 24.3165 38.5326 24.2391 38.5948 24.1389C38.6871 23.9896 38.6358 23.8679 38.6358 23.8679C38.6358 23.8679 38.5251 23.8697 38.3962 24.009Z" fill="white"/>
<path d="M38.2335 18.1707C38.238 18.4029 38.389 18.5392 38.6211 18.5905C38.845 18.5536 39.0077 18.4347 39.0319 18.2008C39.0607 17.9197 38.8677 17.7928 38.6281 17.7878C38.3997 17.7829 38.2285 17.9247 38.2335 18.1707Z" fill="white"/>
<path d="M40.7123 17.7027C40.719 17.8299 40.6277 18.0789 40.8865 18.0249C41.1298 17.9737 41.5032 18.2371 41.604 17.7672C41.712 17.2639 41.8264 16.7334 42.0859 16.2851C42.1787 16.1246 42.3098 15.9154 42.3098 15.9154C42.3098 15.9154 42.0993 15.8627 41.9401 15.8833C41.6386 15.9224 41.4177 16.0182 41.4517 15.7975C41.5172 15.3571 42.5382 15.4203 42.5382 15.4203C42.5382 15.4203 43.1483 14.7361 43.4864 14.4794C43.9295 14.1427 44.7988 13.6086 44.907 13.357C45.12 12.8595 44.8162 12.2541 44.285 12.3295C43.7185 12.4099 43.2483 12.7119 42.7922 13.0326C42.6569 13.1277 42.5141 13.1861 42.3676 13.0995C42.2377 13.0227 42.2862 12.8709 42.2979 12.754C42.3163 12.5883 42.35 12.4248 42.3987 12.2653C42.6101 11.5508 43.0833 11.0052 43.5695 10.468C44.1375 9.84058 44.8259 9.3318 45.3436 8.65434C45.5656 8.36424 45.5223 8.09405 45.322 7.82087C45.062 7.46584 44.7249 7.5472 44.3793 7.64672C43.6182 7.8669 43.2632 8.51352 42.8343 9.09122C42.5288 9.50248 42.3118 10.0011 41.8209 10.2568C41.7886 10.211 41.7575 10.1867 41.7605 10.168C41.7898 9.99036 41.8254 9.81372 41.8583 9.63657C42.2745 7.37702 42.4994 5.12121 41.7869 2.87136C41.3142 1.3756 39.9483 0.388634 38.3851 0.437398C37.4412 0.466756 36.6216 1.05715 36.3932 1.87245C36.2076 2.53424 36.5567 3.00471 37.2284 3.0169C37.7387 3.02586 38.2159 2.8925 38.6963 2.73925C39.2604 2.55887 39.9418 2.19538 40.5568 2.46383C40.6618 2.53151 40.2632 2.6564 40.003 2.76239C39.8075 2.84225 39.7229 2.93106 39.7229 2.93106C39.7229 2.93106 39.7754 3.06591 39.8 3.13159C40.2976 4.46911 40.3809 5.86982 40.4065 7.27825C40.4511 9.73336 40.2053 12.1666 39.8373 14.5888C39.7997 14.8376 39.8622 15.0242 39.9746 15.2141C40.4297 15.9823 40.6655 16.8131 40.7123 17.7027Z" fill="white"/>
<path d="M29.4588 25.2561L25.2244 25.1775V25.5581L29.7303 25.489L29.4588 25.2561Z" fill="white"/>
<path d="M40.2581 21.3847C40.2569 21.2354 40.1474 21.1737 39.9915 21.1555C39.8798 21.1938 39.773 21.2613 39.7874 21.4095C39.8006 21.5449 39.8765 21.6439 40.0332 21.6335C40.1843 21.6223 40.2594 21.5212 40.2581 21.3847Z" fill="white"/>
<path d="M33.0756 27.5836C33.3811 27.6973 30.551 31.3728 29.7512 32.8942C29.0279 34.2695 28.4099 35.6946 28.3624 37.2926C28.3199 38.7202 28.9498 39.8303 29.9808 40.7526C31.8119 42.3924 34.0419 43.0599 36.4151 43.2903C38.612 43.5042 40.8091 43.4226 42.9689 42.9032C43.9867 42.6586 44.9635 42.2929 45.8315 41.6948C47.0902 40.8275 47.5569 39.5235 47.694 38.0852C47.8803 36.1267 47.4312 34.2431 46.9088 32.3754C46.8869 32.297 46.8446 32.1975 46.8011 32.154C45.4772 30.8192 46.3662 28.2337 46.3662 28.2337L45.9099 27.6003C45.9099 27.6003 45.7606 27.6476 45.688 27.671C44.4499 28.0718 43.1779 28.2768 41.8849 28.3852C41.5092 28.4166 41.2485 28.7072 40.9586 28.9127C40.2682 29.4023 39.6069 29.9327 38.7988 30.2343C38.4891 30.35 38.2584 30.3353 38.0087 30.0955C37.3576 29.47 36.6843 28.8682 36.0198 28.2569C35.9203 28.1648 35.8404 28.0598 35.6812 28.0377C33.8742 27.7869 30.3697 25.965 30.3697 25.965L25.2249 26.0217V29.0597L31.6868 29.1137C31.6868 29.1137 32.882 27.5115 33.0756 27.5836Z" fill="white"/>
<path d="M40.4411 18.587C39.5527 18.9781 39.0479 20.0024 39.2397 21.0296C39.9363 20.7776 40.2747 20.841 40.4966 21.2645C40.6974 21.6471 40.5247 22.0029 39.9381 22.3736C40.9862 23.0658 42.1693 22.6647 42.8629 21.9009C43.6008 21.0881 43.6242 20.1029 42.9699 19.2027C42.3907 18.4068 41.4005 18.1657 40.4411 18.587Z" fill="white"/>
<path d="M48.8564 23.1235C49.1052 22.8478 49.3471 22.565 49.5859 22.2803C49.6805 22.1674 49.668 22.0552 49.5501 21.9569C49.2336 21.6907 48.8052 21.5884 48.4529 21.4593C48.3511 21.4446 48.2788 21.5163 48.2255 21.5999C47.8988 22.1117 47.8451 22.3886 48.2636 22.817C48.3505 22.9049 48.4326 22.9975 48.5094 23.0944C48.6179 23.2335 48.74 23.2521 48.8564 23.1235Z" fill="white"/>
<path d="M47.9281 29.3864C48.1272 29.3991 48.2837 30.0442 48.4974 30.705C48.7691 31.5434 49.0995 32.4866 49.3637 33.0685C49.7617 33.949 50.0431 34.1384 50.1581 34.1259C50.2825 34.112 50.2909 33.9985 50.2787 33.6423C50.267 33.2952 49.8028 31.2663 49.704 30.5366C49.6911 30.4408 49.6361 30.2937 49.7861 30.2529C49.8968 30.2228 49.9491 30.3405 50.0018 30.4169C50.3718 30.9531 50.7315 31.4964 51.1082 32.0281C51.3719 32.4013 51.6518 32.7618 51.9357 33.1191C52.0176 33.2221 52.136 33.3773 52.2721 33.3009C52.4009 33.2285 52.3315 33.0459 52.3024 32.9183C52.2318 32.607 51.7999 31.2192 51.0532 29.6414C49.9752 27.3634 49.1089 26.2329 49.1089 26.2329L46.3799 27.4236L46.6065 27.7177L47.0885 27.4192C46.774 28.0344 46.2729 30.7697 46.9434 31.3648C47.1111 30.7809 47.5671 29.363 47.9281 29.3864Z" fill="white"/>
<path d="M31.7114 23.5544C32.0253 23.9132 32.1614 23.8992 32.4145 23.4842C32.5294 23.2956 32.0564 22.35 31.8002 22.3433C31.6225 22.4522 31.37 22.5435 31.2168 22.7207C31.0822 22.8764 31.3068 23.0332 31.3951 23.174C31.4835 23.3148 31.6026 23.43 31.7114 23.5544Z" fill="white"/>
<path d="M31.6891 21.7203C31.5798 21.3381 31.4773 20.9943 31.3845 20.6477C31.3492 20.5161 31.2579 20.527 31.1606 20.5273C30.5386 20.5273 30.2117 21.0204 30.4667 21.5695C30.5133 21.669 30.5541 21.7723 30.5998 21.8725C30.8146 22.341 30.8457 22.3554 31.2751 22.0837C31.435 21.982 31.6843 21.9554 31.6891 21.7203Z" fill="white"/>
<path d="M49.1715 34.8499C49.2484 34.5616 49.387 34.5748 49.5696 34.7686C49.7868 35.0044 50.0513 35.1918 50.3458 35.3184C50.4638 35.3682 50.6959 35.4888 50.6847 35.2806C50.6755 35.1064 50.4095 34.6322 50.4095 34.6322C50.4095 34.6322 49.9025 34.7429 49.5848 34.3508C49.0506 33.6918 48.051 31.4917 47.8221 30.2908C47.6728 30.5804 47.2847 31.8701 47.2847 31.8701C47.896 33.6164 48.1768 34.7872 48.3794 36.703C48.7991 36.3927 49.0093 35.4575 49.1715 34.8499Z" fill="white"/>
<path d="M45.4124 25.5034C45.9117 25.3019 46.263 25.0665 46.6143 24.8329C46.7826 24.7182 46.9414 24.5902 47.0892 24.45L46.661 23.9059L45.4124 25.5034Z" fill="white"/>
<path d="M47.5619 22.8413C47.3557 22.9383 47.1425 23.1563 47.0457 23.4013C46.969 23.5946 47.3412 24.1622 47.4957 24.2107C47.6132 24.2475 48.2687 23.6546 48.2638 23.5088C48.1906 23.365 47.6694 22.7915 47.5619 22.8413Z" fill="white"/>
<path d="M32.7213 24.0107C32.6624 24.1334 32.373 24.2115 32.5969 24.4011C32.9069 24.6613 33.201 24.9484 33.6668 25.1781C33.46 24.6832 33.1727 24.3762 32.9649 24.0209C32.8995 23.9062 32.7925 23.8614 32.7213 24.0107Z" fill="white"/>
<path d="M52.4908 22.8391C53.5693 21.6345 52.187 20.3193 50.38 19.8643C48.3496 19.3528 46.1137 19.3816 44.0813 19.7996C43.8051 19.8563 43.7847 19.9917 43.8041 20.2395C43.9136 21.6367 43.207 22.6744 41.9133 23.0655C41.5172 23.1854 41.1084 23.1098 40.6083 23.1434C41.092 23.3424 41.5003 23.4051 41.9143 23.4205C42.3141 23.4357 42.7146 23.424 43.195 23.424C41.9563 24.041 40.2299 23.6818 39.2424 22.6577C38.5045 23.3312 37.6601 23.7119 36.5169 23.6173C36.8724 23.489 37.2327 23.3725 37.58 23.2225C37.8905 23.0884 38.1741 22.8831 38.4625 22.7C38.5737 22.6296 38.7235 22.5383 38.7416 22.3995C38.5272 22.4075 38.2848 22.5918 38.0746 22.6543C37.8512 22.721 37.6202 22.759 37.3872 22.7675C36.9283 22.7817 36.473 22.6832 36.0611 22.4804C35.2274 22.0733 34.6149 21.2861 34.377 20.3952C34.2305 19.8454 33.91 19.5874 33.4316 19.4162C31.8341 18.8452 30.199 18.7504 28.5391 19.049C27.7927 19.1833 27.4123 19.6461 27.3652 20.4027C27.3481 20.6809 27.374 20.9601 27.4421 21.2304C27.7444 22.4423 28.4467 23.4148 29.2941 24.2941C30.3188 25.3623 31.5584 26.2011 32.931 26.7551C33.6881 27.0621 34.4641 27.3241 35.3045 27.3963C34.7024 26.472 34.3678 26.157 33.4923 25.6395C31.8572 24.6727 30.776 23.215 29.9699 21.5436C29.8126 21.2177 29.6519 21.2187 29.323 21.2966C29.9278 20.3761 30.7257 19.9464 31.7318 19.9061C32.3182 19.8827 32.886 19.9725 33.3358 20.4076C32.9686 20.4076 32.6143 20.3579 32.2593 20.3129C31.9687 20.277 31.8363 20.3853 31.9169 20.694C32.004 21.0301 32.0834 21.3657 32.2272 21.6862C32.6663 22.6652 33.236 23.5638 33.856 24.4364C35.1851 26.3058 36.6923 28.024 38.2679 29.6859C38.4627 29.8912 38.5913 29.8919 38.8289 29.7531C40.6269 28.7029 42.3151 27.4752 43.8683 26.0884C45.3195 24.7879 46.614 23.3491 47.5825 21.6404C47.6622 21.4999 47.7119 21.2879 47.7119 21.2879C47.3573 21.1254 46.9744 21.0338 46.5846 21.0182C47.4594 20.6062 48.731 21.0861 49.7824 21.6516C51.2814 22.458 51.0099 22.9481 50.997 22.9364C50.4895 22.4848 50.1613 22.394 50.1613 22.394C50.1613 22.394 49.9949 22.5722 49.9001 22.6722C48.6043 24.0405 47.1882 25.2489 45.4066 25.96C45.1681 26.0572 44.9186 26.1249 44.6637 26.1618C44.2109 26.6285 43.1853 27.3729 42.6763 27.7851C43.1925 27.7577 43.7053 27.6848 44.2086 27.5672C46.3102 27.0696 48.2503 26.1958 50.0274 24.9725C51.0229 24.2878 51.6041 23.8293 52.4908 22.8391ZM38.7638 24.3772C38.5926 24.5762 38.3378 24.6342 38.1644 24.5113C37.991 24.3884 37.9903 24.0483 38.208 23.8644C38.463 23.6487 38.8359 23.528 38.8359 23.528C38.8359 23.528 38.9643 24.1438 38.7638 24.3772ZM40.0754 24.612C39.8398 24.7073 39.4962 24.56 39.4512 24.2232C39.3984 23.8266 39.6005 23.4444 39.6005 23.4444C39.6005 23.4444 40.1602 23.6293 40.266 23.9818C40.3556 24.2844 40.312 24.5167 40.0754 24.612Z" fill="white"/>
<path d="M34.9132 13.6553C34.8339 13.7889 35.4108 13.5269 35.4855 13.4762C36.0276 13.1584 36.4286 13.2117 37.0447 13.1278C37.334 13.0885 37.6219 13.0331 37.9077 12.9714C38.0493 12.9408 38.1814 12.8666 38.1317 12.6857C38.0864 12.5245 37.9525 12.5526 37.8261 12.5728C37.5982 12.6091 37.3686 12.6347 37.1407 12.6723C36.3157 12.8109 35.3648 12.896 34.9132 13.6553Z" fill="black"/>
<path d="M30.4276 30.7333C29.2787 32.3142 28.282 33.9677 27.8583 35.913C27.3018 38.4666 28.2982 40.5294 30.4418 41.9002C31.2877 42.4411 33.76 43.4477 33.76 43.4477L34.3409 46.6952C34.3409 46.6952 31.6728 46.4368 29.9251 46.9264C28.9102 47.2108 28.3099 47.623 28.3099 47.623C29.7529 47.1752 31.5728 47.0286 33.3 47.215C33.4336 47.2294 31.9751 47.4364 31.2877 47.6566C30.616 47.8718 29.881 48.1689 29.309 48.6085C29.4334 48.6 32.2177 47.9653 33.1696 47.7661C34.3389 47.5212 35.8083 47.211 37.013 47.5919C37.0801 47.6133 37.1585 47.6252 37.1978 47.5546C37.2143 47.5223 37.2181 47.4851 37.2083 47.4502C37.1986 47.4153 37.1761 47.3853 37.1453 47.3663C36.2313 46.7953 34.9497 46.7194 34.9497 46.7194L34.4255 43.6032C36.6263 44.0946 40.5359 44.0528 42.6867 43.6209L41.2703 47.4222C41.2703 47.4222 40.0363 47.4969 39.6407 47.6029C39.591 47.6163 39.4882 47.6705 39.4698 47.7188C39.4514 47.7671 39.4788 47.8409 39.6208 47.8703C39.7701 47.9009 41.1017 47.775 42.6198 48.1378C44.4111 48.5654 46.1094 49.1578 47.6753 49.9564C46.8359 48.9884 44.5756 48.1211 44.1785 48.0407C44.8037 48.0788 47.9353 48.7739 48.2246 48.8324C47.7868 48.4955 47.2628 48.2975 46.7359 48.148C46.1741 47.9885 45.6047 47.8572 45.0299 47.7546C44.2636 47.618 43.4911 47.5367 42.7161 47.4772C42.4354 47.4558 42.1548 47.4461 41.8737 47.4364C41.8871 47.4364 43.4709 43.3602 43.4841 43.3562C43.4841 43.3562 44.6363 42.9559 45.0699 42.7591C47.0299 41.8661 47.7397 40.6082 48.2388 38.847C48.4319 38.1663 48.4578 37.3401 48.4578 37.3401C48.4578 37.3401 49.4256 36.9325 49.5773 35.3933C49.8674 35.6055 50.1978 35.8331 50.5519 35.8846C50.8619 35.9294 51.1064 35.7759 51.0823 35.4172C51.0455 34.8698 50.6128 34.2394 50.6128 34.2394C50.6573 33.9271 50.67 33.6112 50.6509 33.2964C50.6292 32.9919 50.3807 31.8191 50.3807 31.8191C50.3807 31.8191 51.1567 32.8792 51.4284 33.2228C51.6209 33.4664 52.1232 34.053 52.4959 33.8577C52.8278 33.6835 52.742 33.3158 52.7027 33.0247C52.3584 30.4743 49.6102 25.9739 49.6102 25.9739C49.6102 25.9739 52.017 24.3125 52.9022 23.2981C53.7422 22.3355 53.4247 21.1747 52.7639 20.5004C51.8844 19.6028 50.6924 19.3077 49.5034 19.1423C47.63 18.8815 45.7554 18.9273 43.9123 19.4159C43.6859 19.4756 43.5655 19.4284 43.4371 19.2286C43.1634 18.8017 42.8009 18.4548 42.3175 18.2685C42.12 18.1926 42.0844 18.0695 42.112 17.8789C42.1924 17.3211 42.4001 16.8106 42.6576 16.3152C42.7106 16.2132 42.8049 16.0746 42.8049 16.0746C43.1781 16.2346 43.0885 16.7307 43.3916 16.6755C43.7436 16.6115 43.4555 15.8365 43.1179 15.6305C43.1179 15.6305 43.4334 15.3123 43.5364 15.2235C43.672 15.1057 43.8136 14.9949 43.9605 14.8916C44.4855 14.5271 45.0274 14.1838 45.3747 13.6215C45.627 13.2132 45.6961 12.7811 45.4603 12.3559C45.2172 11.918 44.7963 11.7924 44.3188 11.8386C43.9406 11.8752 43.5886 12.0016 43.2502 12.1713C43.1714 12.2108 43.0845 12.3176 42.9932 12.2265C42.9154 12.1486 42.9699 12.0367 43.0049 11.9508C43.1228 11.6682 43.2854 11.4062 43.4863 11.1751C44.0643 10.4961 44.7507 9.93237 45.4207 9.35169C46.0534 8.80434 46.1987 8.41821 45.9616 7.84574C45.619 7.0175 44.529 6.77468 43.6906 7.32899C43.2958 7.58998 43.0218 7.97237 42.6989 8.32417C42.6161 8.18012 42.674 8.07388 42.688 7.97014C42.9007 6.37312 42.9482 4.78184 42.5504 3.20249C42.1732 1.70499 41.4308 0.547346 39.7925 0.209483C39.5375 0.156739 39.2892 0.0706576 39.0379 0H37.618C37.5862 0.0233867 37.5573 0.057975 37.5218 0.0681755C36.2544 0.431913 35.7093 1.1248 35.659 2.44042C35.6282 3.25274 36.0088 3.64708 36.8261 3.66176C37.479 3.67346 38.091 3.47541 38.6963 3.27687C38.9852 3.18208 39.0864 3.2719 39.2031 3.5095C39.5532 4.22155 39.6945 4.98684 39.7786 5.76009C39.9776 7.58301 39.8298 9.39921 39.6201 11.2129C39.5044 12.2126 39.3944 13.2125 39.1775 14.2049C38.1268 13.7088 37.9392 13.6444 37.3921 13.7369C36.084 13.9579 35.2585 14.7951 34.6967 15.9296C34.2568 16.8178 34.112 17.7804 34.0832 18.7616C34.0767 18.981 34.0481 19.1323 33.7821 19.0047C33.0907 18.673 32.3441 18.5252 31.5972 18.4352C30.3659 18.2859 29.1247 18.2013 27.9362 18.7011C27.3403 18.9514 26.9196 19.3557 26.7952 20.0255C26.6081 21.0343 26.845 21.9524 27.3461 22.8244C27.7459 23.521 28.9169 24.7466 28.9169 24.7466L25.2261 24.8008V25.1807L29.4608 25.2594L29.7322 25.4922L25.2261 25.5616V26.0249L30.3709 25.9682C30.3709 25.9682 33.8754 27.7901 35.6824 28.0409C35.8416 28.063 35.921 28.168 36.021 28.2601C36.6856 28.8714 37.3588 29.4732 38.0099 30.0987C38.2587 30.3385 38.4903 30.3532 38.8001 30.2375C39.6081 29.9355 40.2694 29.4055 40.9598 28.9159C41.2497 28.7104 41.5104 28.4198 41.8861 28.3885C43.1798 28.28 44.4512 28.075 45.6892 27.6742C45.7616 27.6508 45.9111 27.6035 45.9111 27.6035L46.3681 28.2377C46.3681 28.2377 45.4792 30.8232 46.803 32.1579C46.8466 32.2015 46.8889 32.301 46.9108 32.3794C47.4332 34.2471 47.8811 36.1307 47.696 38.0892C47.5589 39.5275 47.0921 40.8314 45.8335 41.6987C44.9654 42.2958 43.9887 42.6625 42.9708 42.9071C40.8111 43.4266 38.614 43.5082 36.4171 43.2942C34.0438 43.0631 31.8144 42.3956 29.9828 40.7565C28.9518 39.8333 28.3218 38.7241 28.3644 37.2965C28.4119 35.6985 29.0299 34.2734 29.7531 32.8981C30.553 31.3767 33.3831 27.7013 33.0775 27.5876C32.884 27.5154 31.688 29.1177 31.688 29.1177L25.2261 29.0637V29.5341L31.3305 29.6334C31.0407 30.0044 30.6787 30.3878 30.4276 30.7333ZM42.9699 19.2035C43.6242 20.1036 43.6008 21.0888 42.8629 21.9016C42.1692 22.6657 40.9862 23.0667 39.938 22.3743C40.5247 22.0036 40.6974 21.6479 40.4966 21.2652C40.2747 20.8423 39.9358 20.7783 39.2397 21.0304C39.0488 20.0031 39.5527 18.9788 40.4411 18.5877C41.4005 18.1657 42.3907 18.4068 42.9699 19.2035ZM39.7875 21.4095C39.7731 21.2602 39.8798 21.1938 39.9915 21.1555C40.1475 21.1737 40.257 21.2364 40.2582 21.3846C40.2582 21.5212 40.1836 21.6217 40.0343 21.6334C39.8766 21.6439 39.8007 21.5449 39.7875 21.4095ZM39.8345 14.5896C40.2025 12.1673 40.4483 9.73409 40.4038 7.27899C40.3789 5.87056 40.2948 4.46984 39.7972 3.13232C39.7723 3.06664 39.7201 2.93179 39.7201 2.93179C39.7201 2.93179 39.8047 2.84298 40.0002 2.76311C40.2605 2.65663 40.659 2.53173 40.5541 2.46456C39.939 2.19611 39.2576 2.5596 38.6936 2.73997C38.2141 2.89348 37.737 3.02659 37.2257 3.01763C36.5539 3.00594 36.2056 2.53547 36.3905 1.87318C36.6189 1.05788 37.4384 0.467482 38.3823 0.438124C39.9455 0.388365 41.3106 1.37633 41.7841 2.87208C42.4966 5.12193 42.2717 7.37775 41.8555 9.6373C41.8227 9.81444 41.7871 9.9911 41.7577 10.1687C41.7547 10.1874 41.7858 10.2118 41.8182 10.2576C42.3096 10.0018 42.526 9.5032 42.8315 9.09195C43.2604 8.51425 43.6155 7.86763 44.3765 7.64744C44.7211 7.54793 45.0592 7.46582 45.3192 7.8216C45.5183 8.09527 45.5628 8.36497 45.3409 8.65506C44.8231 9.33253 44.1347 9.84132 43.5667 10.4688C43.0806 11.0059 42.6074 11.5515 42.3959 12.2661C42.3473 12.4255 42.3135 12.5891 42.2951 12.7547C42.2834 12.8716 42.2349 13.0234 42.3648 13.1003C42.5113 13.1869 42.6541 13.1284 42.7895 13.0333C43.2463 12.7127 43.7165 12.4114 44.2822 12.3303C44.8134 12.2556 45.1172 12.8599 44.9042 13.3578C44.796 13.6103 43.9267 14.1435 43.4836 14.4801C43.1455 14.7369 42.5355 15.421 42.5355 15.421C42.5355 15.421 41.5154 15.3578 41.449 15.7982C41.4161 16.0189 41.6358 15.9226 41.9374 15.884C42.0966 15.8634 42.3071 15.9161 42.3071 15.9161C42.3071 15.9161 42.1759 16.1254 42.0831 16.2858C41.8237 16.7337 41.71 17.2646 41.6012 17.7679C41.5017 18.2379 41.127 17.9744 40.8837 18.0257C40.626 18.0797 40.7173 17.8306 40.7096 17.7035C40.6628 16.8138 40.4269 15.9831 39.9691 15.2155C39.8587 15.025 39.797 14.8381 39.8345 14.5896ZM34.7437 16.9899C35.0798 16.0164 35.6642 15.1327 36.5534 14.5147C37.4426 13.8967 38.3759 14.0029 39.0663 14.849C39.8084 15.7591 40.1336 16.8416 40.2605 17.9916C40.2779 18.1491 39.7659 18.5785 39.637 18.5225C39.5201 18.4715 39.5726 18.3516 39.5571 18.264C39.434 17.5619 38.7339 17.0805 38.0499 17.2332C37.3556 17.3882 36.8958 18.1103 37.0759 18.7875C37.2302 19.3674 37.786 19.9287 38.8033 19.7068C38.5903 20.3439 38.5998 20.9313 38.8018 21.51C38.8764 21.7277 38.7304 21.8086 38.6005 21.9103C37.6529 22.6498 36.2703 22.4577 35.5043 21.407C34.5335 20.074 34.2018 18.5596 34.7437 16.9899ZM39.0319 18.2008C39.0071 18.4347 38.8461 18.5536 38.6212 18.5904C38.389 18.5392 38.238 18.4028 38.2335 18.1707C38.2286 17.9247 38.3997 17.7828 38.6281 17.7878C38.869 17.7928 39.0608 17.9197 39.0319 18.2008ZM44.2086 27.5684C43.7052 27.686 43.1925 27.7589 42.6763 27.7864C43.1853 27.3741 44.2108 26.6297 44.6636 26.163C44.9185 26.1261 45.168 26.0584 45.4065 25.9612C47.1877 25.2502 48.6043 24.041 49.9 22.6734C49.9948 22.5739 50.1613 22.3952 50.1613 22.3952C50.1613 22.3952 50.4894 22.4861 50.997 22.9376C51.0099 22.9493 51.2813 22.4592 49.7823 21.6528C48.7309 21.0873 47.4594 20.6079 46.5846 21.0194C46.9743 21.035 47.3573 21.1266 47.7119 21.2891C47.7119 21.2891 47.6621 21.5011 47.5825 21.6416C46.6139 23.3504 45.3185 24.7891 43.8682 26.0896C42.3151 27.4764 40.6269 28.7042 38.8289 29.7543C38.5923 29.8932 38.4627 29.8924 38.2679 29.6872C36.6915 28.0255 35.1851 26.3073 33.856 24.4376C33.236 23.5651 32.6663 22.6664 32.2272 21.6874C32.0834 21.3667 32.0032 21.0314 31.9169 20.6952C31.8368 20.3865 31.9687 20.2782 32.2593 20.3141C32.6143 20.3581 32.9686 20.4091 33.3358 20.4089C32.886 19.9737 32.3182 19.8839 31.7318 19.9073C30.7257 19.9476 29.9278 20.377 29.323 21.2978C29.6529 21.2199 29.8136 21.2189 29.9698 21.5449C30.7759 23.2163 31.8572 24.674 33.4923 25.6408C34.3678 26.1583 34.7024 26.4732 35.3045 27.3975C34.4641 27.3254 33.6873 27.0634 32.931 26.7564C31.5583 26.2023 30.3188 25.3635 29.2941 24.2953C28.4467 23.416 27.7444 22.4435 27.4421 21.2316C27.374 20.9613 27.3481 20.6821 27.3652 20.4039C27.4122 19.6478 27.7931 19.1848 28.539 19.0502C30.199 18.7516 31.8341 18.8464 33.4316 19.4174C33.91 19.5886 34.2304 19.8466 34.377 20.3964C34.6148 21.2881 35.2274 22.0745 36.0611 22.4816C36.4729 22.6844 36.9283 22.783 37.3871 22.7687C37.6202 22.7602 37.8512 22.7222 38.0746 22.6555C38.2848 22.593 38.5271 22.4087 38.7416 22.4007C38.7234 22.5395 38.5736 22.6309 38.4624 22.7013C38.1741 22.8836 37.8902 23.0889 37.58 23.2237C37.2317 23.373 36.8724 23.4902 36.5169 23.6186C37.6601 23.7131 38.5045 23.3324 39.2424 22.659C40.2299 23.683 41.9563 24.0423 43.195 23.4253C42.7146 23.4253 42.314 23.4369 41.9142 23.4218C41.5002 23.4063 41.0919 23.3436 40.6083 23.1446C41.1084 23.111 41.5171 23.1867 41.9132 23.0667C43.207 22.6756 43.9125 21.6379 43.8041 20.2407C43.7847 19.9919 43.8041 19.8575 44.0812 19.8008C46.1136 19.3828 48.3495 19.353 50.3799 19.8655C52.1869 20.3205 53.5692 21.6357 52.4907 22.8403C51.604 23.8305 51.0228 24.2891 50.0277 24.9742C48.2503 26.1963 46.3102 27.0691 44.2086 27.5684ZM48.264 23.5103C48.2689 23.6561 47.6133 24.249 47.4959 24.2122C47.3414 24.1637 46.9692 23.5962 47.0458 23.4029C47.1426 23.1578 47.3558 22.9399 47.5621 22.8428C47.6693 22.7916 48.1906 23.365 48.2637 23.5096L48.264 23.5103ZM48.2256 21.6003C48.2791 21.5168 48.35 21.4451 48.453 21.4598C48.8053 21.5882 49.2338 21.6904 49.5502 21.9574C49.6681 22.0569 49.6806 22.1688 49.586 22.2808C49.3472 22.5654 49.1059 22.8483 48.8566 23.124C48.7401 23.2526 48.618 23.2339 48.5095 23.0946C48.4327 22.9977 48.3507 22.9051 48.2637 22.8172C47.845 22.3883 47.8987 22.1114 48.2254 21.5996L48.2256 21.6003ZM47.0899 24.4495C46.9421 24.5897 46.7833 24.7178 46.6149 24.8324C46.2636 25.066 45.9123 25.3014 45.413 25.5029L46.6617 23.9054L47.0899 24.4495ZM33.6692 25.1775C33.2034 24.9481 32.9093 24.6608 32.5993 24.4005C32.3737 24.2109 32.6635 24.1328 32.7237 24.0102C32.7949 23.8609 32.9019 23.9062 32.9686 24.0204C33.1738 24.3757 33.4612 24.6824 33.6692 25.1775ZM31.218 22.7207C31.3713 22.5435 31.6238 22.4522 31.8015 22.3432C32.0577 22.35 32.5307 23.2956 32.4157 23.4842C32.1627 23.8992 32.0266 23.9131 31.7126 23.5544C31.6039 23.43 31.483 23.3126 31.3964 23.174C31.3098 23.0354 31.0817 22.8764 31.2168 22.7207H31.218ZM30.6003 21.8725C30.5545 21.773 30.5137 21.6695 30.4672 21.5695C30.2122 21.0204 30.5401 20.528 31.1611 20.5273C31.2591 20.5273 31.3504 20.5161 31.385 20.6477C31.4778 20.9943 31.5803 21.3381 31.6895 21.7203C31.6848 21.9554 31.4355 21.982 31.2748 22.0837C30.8449 22.3554 30.8138 22.341 30.599 21.8725H30.6003ZM47.0894 27.4191L46.6065 27.7177L46.3788 27.4249L49.1079 26.2341C49.1079 26.2341 49.9742 27.3642 51.0522 29.6426C51.7986 31.2205 52.2307 32.6083 52.3014 32.9195C52.3305 33.0471 52.4009 33.2297 52.271 33.3021C52.1349 33.3785 52.0165 33.2233 51.9347 33.1203C51.6508 32.763 51.3709 32.4015 51.1072 32.0293C50.7305 31.4976 50.3707 30.9543 50.0008 30.4181C49.948 30.3417 49.8958 30.2241 49.7851 30.2542C49.6358 30.295 49.69 30.442 49.703 30.5378C49.8025 31.2675 50.266 33.2964 50.2777 33.6435C50.2899 33.9998 50.2807 34.1132 50.157 34.1272C50.0421 34.1398 49.7619 33.9503 49.3626 33.0698C49.0984 32.4873 48.768 31.5442 48.4963 30.7062C48.2826 30.0464 48.1261 29.4013 47.9271 29.3876C47.5661 29.3642 47.11 30.7821 46.9433 31.3658C46.2738 30.7694 46.7749 28.0342 47.0894 27.4191ZM47.2837 31.8703C47.2837 31.8703 47.6716 30.5806 47.8211 30.291C48.05 31.4919 49.0496 33.692 49.5838 34.3511C49.9015 34.7432 50.4086 34.6325 50.4086 34.6325C50.4086 34.6325 50.6745 35.1072 50.6837 35.2808C50.6949 35.4891 50.4628 35.3686 50.3449 35.3186C50.0503 35.192 49.7858 35.0046 49.5686 34.7688C49.387 34.575 49.2484 34.5618 49.1706 34.8502C49.0083 35.4577 48.7974 36.3927 48.3764 36.7032C48.1759 34.7872 47.895 33.6164 47.2837 31.8701V31.8703Z" fill="black"/>
<path d="M39.5994 23.4445C39.5994 23.4445 39.3984 23.8266 39.4502 24.2232C39.4952 24.56 39.8388 24.7073 40.0744 24.612C40.31 24.5168 40.3545 24.2831 40.264 23.9818C40.1592 23.6293 39.5994 23.4445 39.5994 23.4445ZM39.9577 24.3152C39.8569 24.3431 39.746 24.2891 39.7256 24.1503C39.6922 23.9249 39.7435 23.7982 39.7435 23.7982C39.7435 23.7982 39.9176 23.8729 39.999 24.0346C40.0667 24.1717 40.06 24.2871 39.9577 24.3155V24.3152Z" fill="black"/>
<path d="M38.208 23.8652C37.9913 24.0483 37.9913 24.3876 38.1644 24.512C38.3376 24.6364 38.5926 24.577 38.7638 24.3779C38.9643 24.1445 38.8359 23.5295 38.8359 23.5295C38.8359 23.5295 38.463 23.6495 38.208 23.8652ZM38.5941 24.1388C38.5319 24.2383 38.4578 24.3145 38.3774 24.2543C38.297 24.1941 38.306 24.105 38.3956 24.009C38.5252 23.8696 38.6352 23.8679 38.6352 23.8679C38.6352 23.8679 38.6864 23.9901 38.5953 24.1388H38.5941Z" fill="black"/>
</svg>
