<svg viewBox="0 0 87 32" fill="none" xmlns="http://www.w3.org/2000/svg">
<path d="M19.8377 0.464783H0V31.5497H4.13099V17.8477H19.5914V14.1668H4.13099V4.14563H19.8368V0.464783H19.8377Z" fill="var(--icon-fill, #F8F2F2)"/>
<path d="M78.1293 15.9934C82.7105 15.5433 85.8598 12.8302 85.8598 8.74062C85.8598 4.4463 82.9558 0.464783 75.3884 0.464783H63.691V31.5497H75.3884C82.7102 31.5497 86.9227 28.7408 86.9227 23.1374C86.9227 18.4344 83.8968 16.1982 78.1293 15.9934ZM81.5645 9.14934C81.5645 12.4621 79.2739 14.1116 75.3884 14.1116H67.8219V4.14563H75.3884C79.2739 4.14563 81.5645 5.87717 81.5645 9.14934ZM67.8219 27.8689V17.7932H75.511C80.2969 17.7932 82.6282 19.4159 82.6282 22.8514C82.6282 26.2462 80.2969 27.8689 75.511 27.8689H67.8219Z" fill="var(--icon-fill, #F8F2F2)"/>
<path d="M55.1951 0.0224652C52.0631 0.0224652 50.7574 1.78426 50.7574 3.48126C50.7574 3.4847 50.7584 3.48817 50.7584 3.49161C50.7584 3.53483 50.7677 3.57629 50.7696 3.61864C50.8325 5.07543 52.025 6.23927 53.4973 6.23927C55.0033 6.23927 56.2234 5.02444 56.2346 3.521C56.2346 3.51409 56.2373 3.50718 56.2373 3.49938C56.2373 3.48556 56.2336 3.47346 56.233 3.45964C56.2181 3.03194 56.1645 2.66904 56.1086 2.50142C58.2617 2.9585 59.7634 6.80868 59.7634 11.8988C59.7634 20.8391 54.5176 28.6708 48.6691 28.6708C45.014 28.6708 42.9913 26.6481 42.9913 21.8837C42.9913 18.5554 43.3827 16.3365 45.1446 6.22116C45.9276 1.78339 46.159 0.463992 46.159 0.463992H41.9511C41.9511 0.463992 40.6421 8.04861 40.2507 10.2018C38.0973 22.4704 34.827 29.0622 30.1352 29.0622C27.003 29.0622 25.306 25.7339 25.306 21.1657C25.306 14.77 28.5263 6.59011 36.2269 0.260078L35.965 0C34.2031 0.652355 32.5718 0.434616 30.9396 0.434616C28.5246 0.434616 27.6113 0.108006 26.1753 0.108006C23.3041 0.108006 22.2594 2.39255 21.15 6.24275L21.4109 6.37321C22.1938 4.28482 23.4993 3.9582 25.1963 3.9582C26.1096 3.9582 27.3495 4.15433 28.7856 4.15433C29.5036 4.15433 30.3521 4.08866 31.1349 3.9582C24.2174 10.0929 20.9323 18.0335 20.9323 23.3855C20.9323 28.9974 24.0644 32 27.8498 32C32.0266 32 36.5291 29.1288 39.7269 17.7078C39.5309 19.0782 39.0091 22.276 39.0091 23.973C39.0091 29.3897 41.6849 32 46.3835 32C54.2803 32 61.7852 19.4696 61.7852 10.2683C61.7862 5.43918 60.0891 0.0224652 55.1951 0.0224652Z" fill="var(--icon-fill, #F8F2F2)"/>
</svg>
